<?xml version="1.0" standalone="no"?>
<!DOCTYPE svg PUBLIC "-//W3C//DTD SVG 1.1//EN" "http://www.w3.org/Graphics/SVG/1.1/DTD/svg11.dtd" >
<svg xmlns="http://www.w3.org/2000/svg">
<metadata>Generated by IcoMoon</metadata>
<defs>
<font id="cloudkitIcons" horiz-adv-x="1024">
<font-face units-per-em="1024" ascent="960" descent="-64" />
<missing-glyph horiz-adv-x="1024" />
<glyph unicode="&#x20;" horiz-adv-x="512" d="" />
<glyph unicode="&#xe600;" glyph-name="account" d="M765.611 521.856c-18.005-28.8-40.789-54.4-68.011-76.416-52.821-41.6-115.2-63.616-180.395-63.616s-127.616 22.016-180.395 63.616c-27.605 22.016-50.389 48-68.395 76.8-84.395-1.621-152.021-80-152.021-166.784v-214.784c0-87.595 94.421-194.005 180.011-194.005h431.616c85.589 0 180.011 106.411 180.011 194.005v214.784c0 83.2-62.805 160-142.421 166.4zM516.779 907.051c-128.384 0-232.789-104.789-232.789-233.216 0-57.984 22.016-110.805 57.216-151.595 9.6-11.221 20.395-21.205 32-30.421 39.595-31.616 89.216-51.2 143.616-51.2s104.021 19.584 143.616 51.2c11.605 9.216 22.4 19.584 32 30.421 35.584 40.789 57.216 93.184 57.216 151.595 0.384 128.384-104.021 233.216-232.789 233.216z" />
<glyph unicode="&#xe601;" glyph-name="add" d="M640-4.266v302.933h277.333c21.333 0 64 21.333 64 42.667v162.133c0 21.333-42.667 51.2-64 51.2h-277.333v290.133c0 21.333-38.4 51.2-59.733 51.2h-145.067c-21.333 0-51.2-29.867-51.2-51.2v-290.133h-290.133c-21.333 0-51.2-29.867-51.2-51.2v-162.133c0-21.333 29.867-42.667 51.2-42.667h290.133v-302.933c0-21.333 29.867-38.4 51.2-38.4h145.067c21.333 0 59.733 17.067 59.733 38.4z" />
<glyph unicode="&#xe602;" glyph-name="arrow_down" d="M960 682.667c-8.533 21.333-34.133 42.667-59.733 42.667h-776.533c-25.6 0-46.933-21.333-59.733-42.667s-4.267-55.467 12.8-72.533l388.267-443.733c12.8-12.8 29.867-21.333 46.933-21.333s38.4 8.533 46.933 21.333l388.267 448c17.067 12.8 21.333 42.667 12.8 68.267z" />
<glyph unicode="&#xe603;" glyph-name="arrow_down_right" d="M763.221 786.646c-24.789 7.211-59.221 6.4-75.989-12.8l-608.384-592.811c-16.811-19.2-12.8-53.589-2.389-76.8s38.016-41.984 63.616-41.6l598.016 0.384c18.816 0 37.589 7.211 50.005 21.589s18.389 32.811 16 51.2l8.789 594.005c-3.2 25.216-25.216 49.579-49.579 56.789z" />
<glyph unicode="&#xe604;" glyph-name="arrow_L" d="M37.589 450.262c0.384 0.384 0.384 0.384 0.811 0.811l354.816 288.384c6.016 6.016 14.805 9.216 23.595 9.216 9.216 0 18.389-4.011 24.021-10.411 1.579-2.005 3.2-4.395 3.2-7.211v-188.416h518.4c18.389 0 33.621-16 33.621-34.389v-170.795c0-18.389-15.189-34.816-33.621-34.816h-518.4v-180.395c0-2.816-1.621-5.205-3.2-7.211-5.589-6.784-14.421-10.411-23.595-10.411-8.789 0-17.195 3.2-23.595 9.216l-354.816 288.384c-0.384 0.384-0.811 0.384-0.811 0.811-13.184 13.184-13.184 34.389-0.384 47.189z" />
<glyph unicode="&#xe605;" glyph-name="arrow_R" d="M986.411 450.262c-0.384 0.384-0.384 0.384-0.811 0.811l-354.816 288.384c-6.016 6.016-14.805 9.216-23.595 9.216-9.216 0-18.389-4.011-24.021-10.411-1.621-2.005-3.2-4.395-3.2-7.211v-188.416h-518.4c-18.389 0-33.621-16-33.621-34.389v-170.795c0-18.389 15.189-34.816 33.621-34.816h518.4v-180.395c0-2.816 1.621-5.205 3.2-7.211 5.589-6.784 14.379-10.411 23.595-10.411 8.789 0 17.195 3.2 23.595 9.216l354.816 288.384c0.384 0.384 0.811 0.384 0.811 0.811 13.184 13.184 13.184 34.389 0.384 47.189z" />
<glyph unicode="&#xe606;" glyph-name="arrow_right" d="M261.589 878.678c-23.595-10.411-49.579-33.579-49.579-59.605v-785.195c0-25.6 25.984-48.811 49.579-59.605 23.211-10.795 56.405-6.784 75.605 10.411l451.584 392.405c13.995 12.416 23.595 30.421 23.595 49.195s-7.595 36.821-21.589 49.195l-454.016 392.789c-19.2 17.195-52.011 21.205-75.221 10.411z" />
<glyph unicode="&#xe607;" glyph-name="arrow-down" d="M597.333 814.934v-558.933l119.467 136.533c25.6 29.867 72.533 29.867 98.133 4.267 29.867-25.6 29.867-72.533 4.267-98.133l-256-298.667c0 0 0 0-4.267-4.267s0 0-4.267-4.267 0 0-4.267 0c0 0-4.267-4.267-4.267-4.267s-4.267-4.267-4.267-4.267c0 0-4.267 0-8.533-4.267 0 0-4.267 0-8.533-4.267-4.267 0-4.267 0-8.533 0s-4.267 0-8.533 0-4.267 0-8.533 0-4.267 0-8.533 0-4.267 0-8.533 0-4.267 0-8.533 0-4.267 0-8.533 4.267c-4.267 0-4.267 0-8.533 4.267 0 0-4.267 4.267-4.267 4.267s-4.267 4.267-4.267 4.267c0 0 0 0-4.267 0 0 0 0 0-4.267 4.267 0 0-4.267 0-4.267 4.267l-256 298.667c-12.8 12.8-17.067 29.867-17.067 46.933 0 21.333 8.533 38.4 25.6 51.2 29.867 25.6 72.533 21.333 98.133-4.267l119.467-136.533v558.933c0 34.133 38.4 64 85.333 64 68.267 0 106.667-29.867 106.667-64z" />
<glyph unicode="&#xe608;" glyph-name="arrow-left" d="M896 512h-558.933l136.533 119.467c29.867 25.6 29.867 72.533 4.267 98.133-25.6 29.867-72.533 29.867-98.133 4.267l-298.667-256c0 0 0 0-4.267-4.267s0 0-4.267-4.267 0 0 0-4.267c0 0-4.267-4.267-4.267-4.267s-4.267-4.267-4.267-4.267c0 0 0-4.267-4.267-8.533 0 0 0-4.267-4.267-8.533 0-4.267 0-4.267 0-8.533s0-4.267 0-8.533 0-4.267 0-8.533 0-4.267 0-8.533 0-4.267 0-8.533 0-4.267 0-8.533 0-4.267 4.267-8.533c0-4.267 0-4.267 4.267-8.533 0 0 4.267-4.267 4.267-4.267s4.267-4.267 4.267-4.267c0 0 0 0 0-4.267 0 0 0 0 4.267-4.267 0 0 0-4.267 4.267-4.267l298.667-256c12.8-12.8 29.867-17.067 46.933-17.067 21.333 0 38.4 8.533 51.2 25.6 25.6 29.867 21.333 72.533-4.267 98.133l-136.533 140.8h558.933c34.133 0 64 38.4 64 85.333s-29.867 85.333-64 85.333z" />
<glyph unicode="&#xe609;" glyph-name="arrow-right" d="M917.333 435.2c0 4.267 0 4.267 0 8.533s0 4.267 0 8.533 0 4.267-4.267 8.533c0 4.267 0 4.267-4.267 8.533 0 0-4.267 4.267-4.267 4.267s-4.267 4.267-4.267 4.267c0 0 0 0 0 4.267 0 0 0 0-4.267 4.267s0 0-4.267 4.267l-298.667 256c-29.867 25.6-72.533 21.333-98.133-4.267-25.6-29.867-21.333-72.533 4.267-98.133l140.8-132.267h-520.533c-34.133 0-64-38.4-64-85.333s29.867-85.333 64-85.333h520.533l-136.533-119.467c-29.867-25.6-29.867-72.533-4.267-98.133 12.8-17.067 34.133-25.6 51.2-25.6s34.133 4.267 46.933 17.067l298.667 256c0 0 0 4.267 4.267 4.267 0 0 0 0 4.267 4.267 0 0 0 0 0 4.267 0 0 4.267 4.267 4.267 4.267s4.267 4.267 4.267 4.267c0 0 0 4.267 4.267 8.533 0 0 0 4.267 4.267 8.533 0 4.267 0 4.267 0 8.533s0 4.267 0 8.533 0 4.267 0 8.533c-4.267-4.267-4.267-4.267-4.267 0z" />
<glyph unicode="&#xe60a;" glyph-name="arrows" d="M42.795 244.651c0 0 0.384 0.384 0.384 0.384l248.405 201.6c4.395 4.011 10.411 6.4 16.384 6.4 6.4 0 15.616-2.816 19.2-7.211 1.195-1.579 4.821-3.2 4.821-5.205v-127.616h523.605c12.8 0 28.8-15.189 28.8-27.989v-119.595c0-12.8-16-32.384-28.8-32.384h-523.605v-118.4c0-2.005-3.584-3.584-4.821-5.205-4.011-4.779-11.605-7.211-18.005-7.211-6.016 0-12.8 2.389-17.195 6.4l-248.405 201.6c-0.384 0-0.384 0.384-0.811 0.384-8.789 9.984-9.216 24.789 0 34.005zM981.205 641.878c0 0-0.384 0.384-0.384 0.384l-248.405 201.6c-4.395 4.011-10.411 6.4-16.384 6.4-6.4 0-15.616-2.816-19.2-7.211-1.195-1.579-4.779-3.2-4.779-5.205v-127.189h-523.221c-12.8 0-28.8-15.189-28.8-27.989v-119.595c0-12.8 16-32.384 28.8-32.384h523.221v-118.4c0-2.005 3.584-3.584 4.779-5.205 4.011-4.779 11.605-7.211 18.005-7.211 6.016 0 12.8 2.389 17.195 6.4l248.405 201.6c0.384 0 0.384 0.384 0.811 0.384 8.789 9.6 9.216 24.405 0 33.621z" />
<glyph unicode="&#xe60b;" glyph-name="arrow-up" d="M597.333 38.4v563.2l119.467-136.533c25.6-29.867 72.533-29.867 98.133-4.267 29.867 25.6 29.867 72.533 4.267 98.133l-256 298.667c0 0 0 0-4.267 4.267s0 0-4.267 4.267 0 0-4.267 0c0 0-4.267 4.267-4.267 4.267s-4.267 4.267-4.267 4.267c0 0-4.267 0-8.533 4.267 0 0-4.267 0-8.533 4.267-4.267 0-4.267 0-8.533 0s-4.267 0-8.533 0-4.267 0-8.533 0-4.267 0-8.533 0-4.267 0-8.533 0-4.267 0-8.533 0-4.267 0-8.533-4.267c-4.267 0-4.267 0-8.533-4.267 0 0-4.267-4.267-4.267-4.267s-4.267-4.267-4.267-4.267c0 0 0 0-4.267 0 0 0 0 0-4.267-4.267 0 0-4.267 0-4.267-4.267l-256-298.667c-12.8-12.8-17.067-29.867-17.067-46.933 0-21.333 8.533-38.4 25.6-51.2 29.867-25.6 72.533-21.333 98.133 4.267l140.8 136.533v-558.933c0-34.133 38.4-64 85.333-64 46.933-4.267 85.333 25.6 85.333 59.733z" />
<glyph unicode="&#xe60c;" glyph-name="barChart" d="M777.984 86.656h-61.995c0.384 4.011 4.011 1.621 4.011 3.2v433.579c0 10.795-12.416 15.189-23.211 15.189h-66.389c-10.795 0-22.4-4.011-22.4-15.189v-433.579c0-1.621 2.816 0.811 3.2-3.2h-43.221c0.384 4.011-8.021 1.621-8.021 3.2v167.595c0 10.795 0 17.195-11.221 17.195h-66.389c-10.795 0-18.389-6.4-18.389-17.195v-167.595c0-1.621-1.195 0.811-0.811-3.2h-40.789c0.384 4.011-2.816 1.621-2.816 3.2v246.4c0 10.795-5.589 18.389-16.384 18.389h-66.389c-10.795 0-24.789-7.595-24.789-18.389v-246.4c0-1.621 5.589 0.811 6.016-3.2h-41.984v469.205c0 12.416-7.595 22.016-20.011 22.016s-20.011-9.984-20.011-22.016v-485.589c0-1.195 0-2.389 0.384-3.584-0.384-1.195-0.384-3.584-0.384-4.779 0-12.416 9.984-23.211 22.016-23.211h520.021c12.416 0 22.016 11.605 22.016 24.021s-9.6 24.021-22.016 24.021zM307.2 554.667l-34.816 45.184c-0.811 2.005-2.005 4.011-3.584 5.589-2.389 2.389-5.589 3.2-8.789 3.2-2.816 0-6.016-0.811-8.405-2.816-2.005-1.579-3.2-3.2-4.011-5.205l-40.021-45.184c-4.821-5.205-4.395-13.611 1.195-18.389 2.389-2.005 5.589-3.2 8.405-3.2 3.584 0 7.211 1.579 9.6 4.395l32.384 36.779 27.989-36.011c2.389-3.2 6.4-5.205 10.411-5.205 2.816 0 5.589 0.811 8.021 2.816 4.821 4.395 6.016 12.416 1.621 18.005zM774.016 12.672l45.184 34.816c2.005 0.811 4.011 2.005 5.589 3.584 2.389 2.389 3.2 5.589 3.2 8.789 0 2.816-0.811 6.016-2.816 8.405-1.621 2.005-3.2 3.2-5.205 4.011l-45.184 40.021c-5.205 4.821-13.611 4.395-18.389-1.195-2.005-2.389-3.2-5.589-3.2-8.405 0-3.584 1.579-7.211 4.395-9.6l36.779-32.384-36.011-27.989c-3.2-2.389-5.205-6.4-5.205-10.411 0-2.816 0.811-5.589 2.816-8.021 4.395-4.821 12.416-6.016 18.005-1.621zM916.011 652.672c0 0.384 0 0.811 0 1.621v3.584c0 8.405-3.2 16.384-9.216 22.4l-235.989 242.005c-6.016 6.016-13.995 8.405-22.784 8.405h-473.6c-61.611 0-66.389-34.816-66.389-46.379v-895.189c0-32.384 34.816-70.4 66.389-70.4h683.221c31.616 0 58.411 29.995 58.411 62.805v669.611c0 0.384 0 1.195 0 1.621zM807.211 682.667h-135.211v138.411l135.211-138.411zM178.005-17.322c-2.005 4.011-6.016 6.4-6.016 8.789v877.184c0 0 1.579-2.005 2.389-2.005h433.579v-214.016c0-17.621 14.379-34.005 32-34.005h212.011v-635.989h-674.005z" />
<glyph unicode="&#xe60d;" glyph-name="barChart2" d="M994.005 90.667c-2.389 2.816-5.205 5.205-8.405 6.4l-73.984 65.621c-8.789 7.595-22.016 6.784-29.611-1.621-3.584-4.011-5.205-9.216-5.205-13.995 0-6.016 2.389-11.605 7.211-15.616l14.379-12.8h-78.379c-4.011 0-4.011 1.621-4.011 4.011v592.811c0 14.805-18.816 19.2-33.621 19.2h-90.795c-14.805 0-31.616-4.395-31.616-19.2v-592.811c0-2.389-4.011-4.011-8.021-4.011h-56.021c-4.011 0-8.021 1.621-8.021 4.011v229.205c0 14.805-9.6 26.795-24.405 26.795h-90.795c-14.805 0-28.8-11.989-28.8-26.795v-229.205c0 0-4.011-4.011-5.589-4.011h-54.4c0 0-4.011 1.621-4.011 4.011v336.811c0 14.805-16.811 27.179-31.616 27.179h-91.179c-14.805 0-33.195-12.416-33.195-27.179v-336.811c0-2.389-1.579 0-1.195-4.011h-70.784v626.816l12.8-16c4.395-5.589 10.795-8.405 17.195-8.405 4.821 0 9.216 1.579 13.184 4.395 9.6 7.211 11.221 20.821 4.011 30.421l-58.795 75.605c-1.195 3.584-3.2 6.784-6.016 9.216-4.395 3.584-9.6 5.589-14.805 5.589-4.779 0.384-9.984-1.195-13.995-4.395-3.2-2.389-5.205-5.205-6.784-8.789l-67.2-75.605c-8.021-8.789-7.211-22.4 2.005-30.421 4.011-3.584 9.216-5.589 14.421-5.589 6.016 0 11.989 2.389 16 7.211l16.384 19.2v-674.005c0-16.811 19.584-35.2 36.395-35.2h775.979l-7.595-6.016c-5.205-4.011-8.021-10.411-8.021-16.811 0-4.395 1.579-9.216 4.395-12.8 7.211-9.216 20.395-10.795 29.611-3.584l73.6 56.789c3.2 1.195 6.4 3.2 9.216 6.016 3.584 4.011 5.589 9.6 5.205 14.379-0.811 5.205-2.005 9.984-5.205 13.995z" />
<glyph unicode="&#xe60e;" glyph-name="buy" d="M853.333-0c0-25.6-17.067-42.667-42.667-42.667h-597.333c-25.6 0-42.667 17.067-42.667 42.667l-85.333 298.667c0 25.6 17.067 42.667 42.667 42.667h768c25.6 0 42.667-17.067 42.667-42.667l-85.333-298.667zM597.333 384h362.667c34.133 0 64 51.2 64 85.333s-29.867 85.333-64 85.333h-234.667l-128-170.667zM384 384h-298.667c-34.133 0-85.333 51.2-85.333 85.333s42.667 85.333 85.333 85.333h256c0 0-42.667-42.667-42.667-85.333 0 0 0-85.333 85.333-85.333zM853.333 849.067v0c-17.067 17.067-34.133 21.333-51.2 21.333s-34.133-8.533-46.933-21.333l-332.8-328.533c-4.267-4.267-4.267-4.267-8.533-8.533-21.333-25.6-17.067-64 8.533-89.6l4.267-4.267c12.8-12.8 29.867-21.333 46.933-21.333s34.133 8.533 46.933 21.333l89.6 89.6 243.2 247.467c25.6 25.6 25.6 68.267 0 93.867z" />
<glyph unicode="&#xe60f;" glyph-name="camera" d="M670.379 349.867c0-87.467-70.912-158.421-158.379-158.421s-158.379 70.912-158.379 158.421c0 87.467 70.912 158.421 158.379 158.421s158.379-70.912 158.379-158.421zM969.984 654.678h-226.005v66.816c0 50.389-39.211 89.216-89.6 89.216h-282.411c-50.389 0-91.989-38.784-91.989-89.216v-66.816h-223.189c-18.389 0-32.811-14.379-32.811-32.811v-544c0-18.389 14.421-35.2 32.811-35.2h913.195c18.389 0 29.995 16.811 29.995 35.2v544c0 18.389-11.605 32.811-29.995 32.811zM512 150.656c-109.995 0-199.211 89.216-199.211 199.211s89.216 199.211 199.211 199.211 199.211-89.216 199.211-199.211-88.789-199.211-199.211-199.211zM893.995 493.056c-22.784 0-41.6 18.389-41.6 41.6 0 22.784 18.389 41.6 41.6 41.6 22.784 0 41.6-18.389 41.6-41.6 0-22.784-18.816-41.6-41.6-41.6z" />
<glyph unicode="&#xe610;" glyph-name="checkbox" d="M864-21.333h-704c-51.2 0-96 44.8-96 96v704c0 51.2 44.8 96 96 96h704c51.2 0 96-44.8 96-96v-704c0-51.2-44.8-96-96-96zM160 810.667c-19.2 0-32-12.8-32-32v-704c0-19.2 12.8-32 32-32h704c19.2 0 32 12.8 32 32v704c0 19.2-12.8 32-32 32h-704z" />
<glyph unicode="&#xe611;" glyph-name="checkmark" d="M977.067 755.2l-21.333 55.467c-4.267 8.533-12.8 17.067-21.333 21.333-4.267 0-8.533 0-12.8 0-8.533 0-12.8 0-21.333-4.267-260.267-162.133-456.533-362.667-541.867-465.067l-192 149.333c-4.267 4.267-12.8 8.533-21.333 8.533s-17.067-4.267-25.6-8.533l-98.133-76.8c-8.533-8.533-12.8-17.067-12.8-25.6s4.267-21.333 8.533-29.867l375.467-384c8.533-8.533 17.067-12.8 25.6-12.8 4.267 0 4.267 0 8.533 0 12.8 4.267 21.333 12.8 25.6 21.333 59.733 153.6 256 473.6 512 708.267 17.067 12.8 21.333 29.867 12.8 42.667z" />
<glyph unicode="&#xe612;" glyph-name="ClodKit365" d="M1021.867 547.2c0 102.4-73.6 188.8-170.667 208l92.8-189.867-231.467-231.467h103.467c114.133 4.267 205.867 98.133 205.867 213.333v0zM907.733 584.534l-132.267 273.067-89.6-260.267c118.4-32 194.133-19.2 221.867-12.8v0zM661.333 602.667l90.667 262.4-275.2-133.333c8.533-18.133 50.133-88.533 184.533-129.067v0zM439.467 740.267l200.533 97.067c-52.267 49.067-123.733 80-200.533 80-161.067 0-292.267-130.133-292.267-291.2-80 0-145.067-65.067-145.067-146.133 0-80 65.067-146.133 146.133-146.133h341.333l-50.133 406.4zM314.667-46.933l18.133-17.067c161.067 125.867 200.533 231.467 202.667 235.733l-22.4 8.533c-1.067-1.067-39.467-104.533-198.4-227.2v0zM528 215.467l125.867 363.733c-109.867 34.133-162.133 85.333-184.533 118.4l58.667-482.133zM677.333 573.867l-126.933-365.867 352 350.933c-17.067-3.2-40.533-6.4-72.533-6.4-39.467-1.067-90.667 4.267-152.533 21.333v0z" />
<glyph unicode="&#xe613;" glyph-name="compare" d="M562.816 206.678h-222.805v80.811c0 1.195-2.005 2.389-2.816 3.2-2.389 2.816-8.021 4.395-11.989 4.395s-7.595-1.579-9.984-4.011l-154.411-125.611c0 0-0.384-0.384-0.384-0.384-5.589-5.589-5.589-14.805 0-20.395 0 0 0.384-0.384 0.384-0.384l154.795-125.611c2.816-2.389 6.784-4.011 10.795-4.011s8.405 1.621 11.179 4.395c0.811 0.811 2.816 2.005 2.816 3.2v72.405h222.805c8.021 0 17.195 13.184 17.195 21.589v74.411c-0.384 7.595-9.6 16-17.579 16zM616.405 405.078l-154.795 125.611c-2.816 2.389-6.4 4.011-9.984 4.011-4.011 0-9.984-1.621-12.416-4.395-0.811-0.811-3.2-2.005-3.2-3.2v-80.384h-221.995c-8.021 0-18.005-8.789-18.005-16.811v-74.411c0-8.021 9.984-21.205 18.005-21.205h221.995v-72.789c0-1.195 2.389-2.389 3.2-3.2 2.389-2.816 7.211-4.395 11.179-4.395s8.021 1.579 10.795 4.011l154.795 125.611c0 0 0.384 0.384 0.384 0.384 5.589 6.016 6.016 15.189 0 21.205 0 0 0 0 0 0zM970.795 703.062l-206.805 212.779c-5.205 5.589-12.416 6.784-20.011 6.784h-417.621c-52.395 0-62.379-22.4-62.379-38.016v-61.995h-158.805c-1.621 0-3.2-0.384-5.205-0.384-2.389 0-5.205-0.384-8.021-0.384-44.8 0-48.384-27.605-48.384-36.395v-789.205c0-25.984 32.811-66.005 61.184-66.005h602.411c31.616 0 48.384 35.2 48.384 59.179v41.216h172.8c29.995 0 51.2 31.189 51.2 57.984v596.011c0.384 7.211-3.584 13.184-8.789 18.389zM881.621 702.678h-113.621v125.995l113.621-125.995zM700.416-17.322h-591.616c-4.395 4.011-12.8 11.221-12.8 15.616v772.011c0 0 2.005-1.579 2.816-1.579 2.389 0 4.395-1.621 6.4-1.621h382.805v-188.416c0-14.379 13.184-31.616 27.605-31.616h184.405v-556.8c0-2.816 1.195-3.584 0.384-7.595zM663.211 598.656h-123.221v126.805l123.221-126.805zM756.011 90.667v495.189c0 6.784-3.584 13.611-8.405 18.389l-205.995 210.005c-4.821 4.779-11.605 8.405-18.389 8.405h-195.2v47.616c0 0-3.2 0.384-1.621 0.384h381.611v-189.184c0-15.189 14.379-34.816 29.611-34.816h190.379v-555.989h-171.989z" />
<glyph unicode="&#xe614;" glyph-name="dashboard1" d="M933.205 902.656h-842.411c-30.379 0-54.784-24.405-54.784-54.784v-842.795c0-29.995 24.405-54.784 54.784-54.784h842.795c29.995 0 54.784 24.405 54.784 54.784v842.795c-0.384 30.379-24.789 54.784-55.211 54.784zM923.989 14.678h-824.021v696.021h824.021v-696.021zM262.784 394.667h154.411c23.595 0 42.795 19.2 42.795 42.795v154.411c0 23.595-19.2 42.795-42.795 42.795h-154.411c-23.595 0-42.795-19.2-42.795-42.795v-154.411c0-23.595 19.2-42.795 42.795-42.795zM606.805 394.667h154.411c23.595 0 42.795 19.2 42.795 42.795v154.411c0 23.595-19.2 42.795-42.795 42.795h-154.411c-23.595 0-42.795-19.2-42.795-42.795v-154.411c0-23.595 19.2-42.795 42.795-42.795zM262.784 82.646h154.411c23.595 0 42.795 19.2 42.795 42.795v154.411c0 23.595-19.2 42.795-42.795 42.795h-154.411c-23.595 0-42.795-19.2-42.795-42.795v-154.411c0-23.595 19.2-42.795 42.795-42.795zM606.805 82.646h154.411c23.595 0 42.795 19.2 42.795 42.795v154.411c0 23.595-19.2 42.795-42.795 42.795h-154.411c-23.595 0-42.795-19.2-42.795-42.795v-154.411c0-23.595 19.2-42.795 42.795-42.795z" />
<glyph unicode="&#xe615;" glyph-name="dashboard2" d="M823.211 641.451c-83.2 84.395-193.621 130.389-311.211 130.389-242.816 0-440.021-198.4-440.021-442.411 0-75.989 19.2-152.789 55.595-220.8 6.784-12.8 20.395-27.221 37.589-27.221h694.016c17.195 0 30.805 14.421 37.589 27.221 36.395 68.395 55.595 144.384 55.595 219.605-0.384 117.589-45.995 228.779-129.195 313.216zM512 689.878c23.595 0 42.795-19.2 42.795-42.795s-19.2-42.795-42.795-42.795c-23.595 0-42.795 19.2-42.795 42.795 0 24.021 19.2 42.795 42.795 42.795zM224.384 405.888c-23.595 0-42.795 19.2-42.795 42.795s19.2 42.795 42.795 42.795c23.595 0 42.795-19.2 42.795-42.795s-19.2-42.795-42.795-42.795zM331.179 539.051c-23.595 0-42.795 19.2-42.795 42.795s19.2 42.795 42.795 42.795c23.595 0 42.795-19.2 42.795-42.795s-19.2-42.795-42.795-42.795zM543.189 187.051c-28.416-14.379-62.805-2.816-77.184 25.6-8.405 16.384-8.021 34.816-0.811 50.005l-84.821 203.989c-4.779 9.6-0.811 21.205 8.405 25.984 9.6 4.821 21.205 0.811 25.984-8.405l113.579-189.184c16.811-3.2 32-13.995 40.405-30.805 13.995-28.416 2.816-62.805-25.6-77.184zM698.411 539.051c-23.595 0-42.795 19.2-42.795 42.795s19.2 42.795 42.795 42.795c23.595 0 42.795-19.2 42.795-42.795s-19.2-42.795-42.795-42.795zM793.216 409.046c-23.595 0-42.795 19.2-42.795 42.795s19.2 42.795 42.795 42.795c23.595 0 42.795-19.2 42.795-42.795s-19.2-42.795-42.795-42.795z" />
<glyph unicode="&#xe616;" glyph-name="delete" d="M896 187.734l-217.6 217.6 209.067 209.067c12.8 12.8 25.6 46.933 12.8 59.733l-115.2 115.2c-17.067 17.067-46.933 4.267-59.733-12.8l-213.333-204.8-217.6 217.6c-17.067 17.067-42.667 12.8-59.733 0l-102.4-106.667c-12.8-12.8-17.067-42.667-4.267-59.733l217.6-217.6-209.067-209.067c-12.8-12.8-25.6-46.933-12.8-59.733l115.2-115.2c17.067-17.067 46.933-4.267 59.733 12.8l209.067 209.067 217.6-217.6c17.067-17.067 46.933-12.8 59.733 4.267l102.4 102.4c21.333 12.8 21.333 38.4 8.533 55.467z" />
<glyph unicode="&#xe617;" glyph-name="details" d="M341.333 512h85.333v-341.333h-85.333c0 0-42.667 0-42.667-42.667 0 0 0-85.333 0-128s42.667-42.667 42.667-42.667h298.667c85.333 0 85.333 42.667 85.333 85.333 0 0 0 0 0 42.667s0 85.333-85.333 85.333c0 0 0 341.333 0 384s0 85.333-42.667 85.333c-68.267 0-256 0-256 0s-42.667 0-42.667-42.667 0-42.667 0-42.667 0-42.667 42.667-42.667zM640 896c0 29.867-12.8 42.667-42.667 42.667h-128c-29.867 0-42.667-12.8-42.667-42.667v-128c0-29.867 12.8-42.667 42.667-42.667h128c29.867 0 42.667 12.8 42.667 42.667v128z" />
<glyph unicode="&#xe618;" glyph-name="document" d="M916.011 650.667c0 0.384 0 0.811 0 1.621v3.584c0 8.405-3.2 16.384-9.216 22.4l-235.989 243.2c-6.016 5.589-13.995 9.216-22.784 9.216h-473.6c-61.611 0-66.389-36.779-66.389-48.384v-895.189c0-32.384 34.816-68.395 66.389-68.395h683.221c31.616 0 58.411 27.989 58.411 60.8v669.611c0 0.384 0 1.195 0 1.621zM807.211 682.667h-135.211v136.405l135.211-136.405zM178.005-17.322c-2.005 1.621-4.821 4.395-6.016 6.784v877.184c0.811 0 1.579 0 2.389 0h433.579v-216.021c0-17.621 14.379-32 32-32h212.011v-635.989h-674.005zM299.989 666.667h184.021c11.989 0 22.016 9.984 22.016 22.016s-9.984 22.016-22.016 22.016h-184.021c-11.989 0-22.016-9.984-22.016-22.016s9.984-22.016 22.016-22.016zM715.989 558.678h-427.989c-13.184 0-24.021-10.795-24.021-24.021s10.795-24.021 24.021-24.021h427.989c13.184 0 24.021 10.795 24.021 24.021s-10.795 24.021-24.021 24.021zM715.989 406.656h-427.989c-13.184 0-24.021-10.795-24.021-24.021s10.795-24.021 24.021-24.021h427.989c13.184 0 24.021 10.795 24.021 24.021s-10.795 24.021-24.021 24.021zM715.989 254.678h-427.989c-13.184 0-24.021-10.795-24.021-24.021s10.795-24.021 24.021-24.021h427.989c13.184 0 24.021 10.795 24.021 24.021s-10.795 24.021-24.021 24.021zM715.989 102.656h-427.989c-13.184 0-24.021-10.795-24.021-24.021s10.795-24.021 24.021-24.021h427.989c13.184 0 24.021 10.795 24.021 24.021s-10.795 24.021-24.021 24.021z" />
<glyph unicode="&#xe619;" glyph-name="docx" d="M544.811 255.446c0-29.611 13.995-50.389 36.779-50.389 23.211 0 36.011 22.016 36.011 51.2 0 27.179-12.8 50.389-36.395 50.389-23.211 0-36.395-22.016-36.395-51.2zM905.984 438.272l9.984 4.395v206.379c0 0.384 0 1.195 0 1.621s0 0.811 0 1.621v3.584c0 8.405-3.2 16.384-9.216 22.4l-235.989 243.2c-6.016 5.589-13.995 9.216-22.784 9.216h-473.6c-61.611 0-66.389-36.779-66.389-48.384v-895.189c0-32.384 34.816-68.395 66.389-68.395h683.221c31.616 0 58.411 27.989 58.411 60.8v117.205c27.605 8.021 48 38.4 48 74.411v191.189c0 40.405-25.6 73.216-57.984 75.989zM672 819.072l135.211-136.405h-135.211v136.405zM178.005-17.322c-2.005 1.621-4.821 4.395-6.016 6.784v877.184c0.811 0 1.579 0 2.389 0h433.579v-216.021c0-17.621 14.379-32 32-32h212.011v-180.011h-482.005c-34.389 0-61.995-34.389-61.995-76.416v-191.189c0-42.411 27.605-76.416 61.995-76.416h482.005v-112h-674.005zM752.811 206.251c10.411 0 21.589 2.389 28.416 4.779l5.205-26.411c-6.4-3.2-20.395-6.4-38.784-6.4-52.011 0-78.805 32.384-78.805 75.179 0 51.2 36.821 80 82.389 80 17.579 0 31.189-3.584 37.205-6.784l-6.784-27.221c-6.784 2.816-16.384 5.589-28.416 5.589-27.179 0-48-16.384-48-50.005-0.384-29.611 17.195-48.811 47.616-48.811zM653.611 257.451c0-49.195-29.995-79.189-73.984-79.189-44.8 0-70.784 33.621-70.784 76.8 0 45.184 28.8 78.805 73.216 78.805 46.379-0.384 71.595-34.816 71.595-76.416zM493.184 259.456c0-28.8-10.411-48.811-25.216-60.8-16-13.184-40.021-19.584-69.589-19.584-17.579 0-29.184 1.195-38.784 2.389v148.011c12.8 2.005 28.8 3.2 45.995 3.2 28.416 0 47.189-5.205 61.611-16 16.384-11.989 25.984-30.805 25.984-57.216zM888.789 182.656l-13.611 27.989c-5.589 10.411-9.216 16-13.611 27.989h-0.384c-3.2-11.989-6.784-17.195-11.605-27.989l-12.416-27.989h-38.784l43.605 74.795-42.411 73.216h39.211l13.184-27.221c4.395-9.216 8.021-16.811 11.179-24.789h0.384c3.584 11.989 6.4 16 10.411 24.789l12.8 27.221h38.784l-42.411-72.405 44.8-75.605h-39.211zM410.795 305.878c-7.595 0-14.805-0.811-14.805-1.195v-98.389c0-0.811 6.784-0.811 11.179-0.811 30.805-0.384 50.389 16.811 50.389 52.821 0 31.189-17.621 47.616-46.805 47.616z" />
<glyph unicode="&#xe61a;" glyph-name="edit" d="M98.133 98.134l-38.4-153.6 157.867 34.133zM598.357 709.419l217.216-217.216-434.432-434.432-217.216 217.216 434.432 434.432zM788.437 901.547l217.216-217.216-84.48-84.48-217.216 217.216 84.48 84.48z" />
<glyph unicode="&#xe61b;" glyph-name="equal" d="M878.293 500.31c0-16.555-13.397-30.336-30.336-30.336h-671.915c-16.555 0-30.336 13.397-30.336 30.336v112.64c0 16.555 13.397 30.336 30.336 30.336h672.299c16.555 0 30.336-13.397 30.336-30.336v-112.64zM878.293 236.459c0-16.555-13.397-30.336-30.336-30.336h-671.915c-16.555 0-30.336 13.397-30.336 30.336v113.024c0 16.555 13.397 30.336 30.336 30.336h672.299c16.555 0 30.336-13.397 30.336-30.336v-113.024z" />
<glyph unicode="&#xe61c;" glyph-name="error" d="M512 926.678c-276.011 0-500.011-224-500.011-500.011s224-500.011 500.011-500.011 500.011 224 500.011 500.011-224 500.011-500.011 500.011zM803.2 215.851l-78.805-78.805c-11.179-11.179-34.389-13.995-45.995-2.389l-166.4 166.4-160.384-160.384c-11.179-11.221-35.584-20.395-47.189-8.789l-87.211 87.211c-11.605 11.605-2.389 36.011 8.789 47.189l160.384 160.384-166.4 166.4c-11.605 11.605-8.789 35.2 2.389 45.995l78.805 78.805c11.221 11.221 32.811 12.416 44.416 0.384l166.4-166.016 160.384 160.384c11.179 11.179 35.584 20.395 47.189 8.789l87.211-87.211c11.605-11.605 2.389-36.011-8.789-47.189l-160.811-160.384 166.4-166.4c11.989-11.605 10.411-33.195-0.384-44.416z" />
<glyph unicode="&#xe61d;" glyph-name="excel" d="M932.779 522.667h-72.789v126.379c0 0.384 0 1.195 0 1.621s0 0.811 0 1.621v3.584c0 8.405-3.2 16.384-9.216 22.4l-235.989 243.2c-6.016 5.589-14.421 9.216-22.784 9.216h-473.6c-61.611 0-66.389-36.779-66.389-48.384v-895.189c0-32.384 34.816-68.395 66.389-68.395h683.221c31.616 0 58.411 27.989 58.411 60.8v119.211h72.789c36.395 7.211 63.189 47.616 63.189 94.379v235.605c0 47.616-25.6 88.021-63.189 93.995zM616.021 819.072l135.211-136.405h-135.211v136.405zM795.989-17.322h-674.389c-2.005 1.621-5.589 4.395-5.589 6.784v877.184c0 0 1.579 0 2.389 0h433.579v-216.021c0-17.621 14.379-32 32-32h212.011v-96h-530.389c-42.411 0-77.611-41.984-77.611-93.995v-235.605c0-52.011 35.2-94.379 77.611-94.379h530.389v-116.011zM660.395 289.067c-34.389 11.989-56.789 31.189-56.789 61.184 0 35.2 29.611 62.379 78.379 62.379 23.211 0 40.405-4.779 52.779-10.411l-10.411-38.016c-8.405 4.011-23.211 9.984-43.179 9.984-20.395 0-29.995-9.216-29.995-20.011 0-13.184 11.605-19.2 38.4-29.184 36.395-13.611 53.589-32.384 53.589-61.995 0-34.816-26.795-64.384-83.584-64.384-23.595 0-47.189 6.016-58.795 12.8l9.6 38.784c12.416-6.4 32-12.8 52.011-12.8 21.589 0 32.811 8.789 32.811 22.4 0 13.184-9.984 20.395-34.816 29.184zM580.011 242.646v-40.021h-128v208h48v-168.021h80zM249.6 410.667h54.016l18.005-39.595c6.016-12.8 10.795-20.395 15.616-36.395h0.811c4.779 20.011 8.789 24.405 13.995 36.395l17.579 39.595h53.589l-58.411-101.589 61.611-106.411h-54.016l-18.816 36.011c-7.595 14.379-12.416 27.989-18.389 36.011h-0.811c-4.395-8.021-9.6-21.205-16-36.011l-17.195-36.011h-53.589l59.989 105.216-57.984 102.784zM883.584 202.667l-18.816 36.011c-2.005 3.584-3.584 6.784-5.205 9.984-5.205 10.411-8.789 19.584-13.611 25.984h-0.811c-4.395-8.021-9.6-21.205-16-36.011l-17.195-36.011h-52.779l36.779 64.384 23.211 40.789-23.211 41.216-34.389 61.611h53.589l18.005-39.595c6.016-12.8 10.795-20.395 15.616-36.395h0.384c3.584 14.805 6.784 21.205 10.411 28.416 1.195 2.389 2.389 5.205 3.584 8.021l17.579 39.595h53.589l-58.411-101.589 61.611-106.411h-54.016z" />
<glyph unicode="&#xe61e;" glyph-name="Exchange" d="M80 98.646l483.2-83.584v823.211l-483.2-83.584v-656zM222.805 617.472l175.616 18.816v-69.589l-105.984-7.595v-79.616l98.816 2.389v-69.205l-98.816 2.005v-82.005l113.621-6.4v-69.589l-183.211 17.195v343.595zM900.779 679.467h-290.005v-62.421h11.221c2.816 0 5.589-1.195 7.595-3.2l43.605-43.605c2.816-2.816 2.816-7.595 0-10.795l-15.616-15.616c-2.816-2.816-7.595-2.816-10.795 0l-19.584 18.816c-0.384 0.384-0.811 0-1.579 0h-14.805v-115.584c29.184-27.179 55.211-47.189 47.616-55.211-4.779-5.205-25.6 3.2-47.616 17.579v-117.589h6.4c54.016 40.405 98.005 112.811 111.616 100.395 15.616-14.805-89.216-151.595-102.016-155.179h-15.616v-62.421h290.005c24.021 0 43.179 20.821 43.179 44.8v415.189c-0.384 23.595-19.584 44.8-43.605 44.8zM881.621 289.878v-42.411c0-6.016-3.584-11.179-9.6-11.179h-107.989c-2.816 0-5.589 1.195-7.595 3.2l-43.605 43.605c-2.816 2.816-2.816 7.595 0 10.795l15.616 15.616c2.816 2.816 7.595 2.816 10.795 0l19.584-18.816c0.384-0.384 0.811 0 1.621 0h70.4v59.989c-40.405 54.016-114.389 98.005-102.016 111.616 14.805 15.616 153.216-89.216 153.216-102.016v-70.4zM881.621 563.456v-66.005c0-2.816-0.384-5.589-2.389-7.595l-43.221-43.605c-2.816-2.816-7.595-2.816-10.411 0l-15.616 15.616c-2.816 2.816-2.816 7.595 0 10.795l19.584 19.584c0.384 0.384 0.811 0.811 0.811 1.579v68.011h-61.611c-54.016-40.405-98.005-112.811-111.616-100.395-15.616 14.805 89.216 151.595 102.016 155.221h112.811c6.016 0 9.6-5.205 9.6-11.221v-41.984z" />
<glyph unicode="&#xe61f;" glyph-name="export" d="M1007.189 248.278l-259.584 259.584c-10.795 10.795-26.795 13.995-40.789 8.021-13.995-5.589-23.211-19.2-23.211-34.389v-110.805h-394.411c-20.395 0-37.205-16.384-37.205-37.205v-223.189c0-20.395 16.811-35.584 37.205-35.584h394.795v-112.384c0-15.189 9.216-28.8 23.211-34.389 4.779-2.005 9.6-2.816 14.379-2.816 9.6 0 19.2 3.584 26.411 10.795l259.584 259.584c6.784 6.784 10.795 16.384 10.795 26.411-0.384 9.984-4.395 19.2-11.179 26.411zM160 6.656v859.989c0 0-0.384 0 0.384 0h427.605v-216.021c0-17.621 13.995-32 31.616-32h212.395v-91.989l64-56.021v178.389c0 0.384 0 1.195 0 1.621s0 0.811 0 1.621v3.584c0 8.405-3.584 16.384-9.216 22.4l-235.989 243.2c-6.016 6.4-14.421 9.6-23.211 9.6h-467.2c-61.611-0.384-64.384-37.205-64.384-48.811v-877.995c0-32.384 32.811-69.589 64.384-69.589h447.616v64h-444.416c-2.005 4.011-3.584 6.016-3.584 8.021zM651.989 819.072l134.784-136.405h-134.784v136.405z" />
<glyph unicode="&#xe620;" glyph-name="feedback" d="M96-4.266c-4.267 0-6.4 2.133-8.533 4.267-2.133 4.267-2.133 10.667 0 14.933 0 0 70.4 74.667 64 151.467-2.133 36.267-21.333 66.133-55.467 91.733-49.067 38.4-72.533 104.533-70.4 204.8 4.267 209.067 215.467 373.333 482.133 373.333 4.267 0 8.533 0 12.8 0 130.133-2.133 249.6-44.8 341.333-117.333 91.733-74.667 140.8-170.667 138.667-273.067-4.267-209.067-215.467-371.2-480-371.2 0 0-8.533 0-12.8 0-57.6 2.133-113.067 10.667-166.4 25.6l-241.067-102.4c0-2.133-2.133-2.133-4.267-2.133zM507.733 823.467c4.267 0 8.533 0 12.8 0 262.4-4.267 471.467-174.933 467.2-379.733-4.267-200.533-213.333-360.533-469.333-360.533-4.267 0-8.533 0-12.8 0-59.733 2.133-115.2 10.667-166.4 27.733l-243.2-104.533c0 0 147.2 155.733 6.4 260.267-57.6 42.667-68.267 123.733-66.133 196.267 4.267 202.667 213.333 360.533 471.467 360.533zM507.733 846.934c-270.933 0-488.533-168.533-492.8-384-2.133-104.533 23.467-174.933 74.667-213.333 32-23.467 49.067-51.2 51.2-83.2 6.4-72.533-59.733-142.933-61.867-142.933-6.4-8.533-8.533-19.2-2.133-27.733 4.267-6.4 10.667-8.533 19.2-8.533 2.133 0 6.4 0 8.533 2.133l232.533 100.267c53.333-14.933 108.8-25.6 166.4-25.6 4.267 0 8.533 0 12.8 0 270.933 0 488.533 168.533 492.8 384 2.133 106.667-49.067 206.933-142.933 281.6-91.733 74.667-215.467 117.333-347.733 119.467-2.133-2.133-6.4-2.133-10.667-2.133v0z" />
<glyph unicode="&#xe621;" glyph-name="filter" d="M981.333 785.067c0 0-102.4 68.267-469.333 68.267 0 0-307.2 0-469.333-68.267 0 0-64-42.667 0-98.133l341.333-332.8v-366.933c0 0 29.867-34.133 128-34.133s128 34.133 128 34.133v366.933l341.333 332.8c59.733 72.533 0 98.133 0 98.133zM507.733 597.334c-200.533 0-392.533 64-392.533 119.467 0 59.733 192 93.867 392.533 93.867s388.267-34.133 388.267-93.867c0-55.467-187.733-119.467-388.267-119.467z" />
<glyph unicode="&#xe622;" glyph-name="folder" d="M938.667 593.067v4.267h-853.333v-4.267c-42.667-4.267-38.4-21.333-38.4-38.4 0 0 8.533-187.733 12.8-256s8.533-256 8.533-256c0-21.333 4.267-42.667 25.6-42.667h844.8c21.333 0 25.6 21.333 25.6 42.667 0 0 4.267 183.467 8.533 251.733s8.533 256 8.533 256c-4.267 21.333 0 38.4-42.667 42.667zM85.333 682.667v-42.667h853.333v42.667c0 21.333 0 42.667-21.333 42.667h-448c0 128-85.333 128-85.333 128h-213.333c-85.333 0-85.333-170.667-85.333-170.667z" />
<glyph unicode="&#xe623;" glyph-name="group" d="M870.4 588.8c-40.533-66.133-100.267-100.267-198.4-100.267-49.067 0-91.733 25.6-125.867 57.6 6.4-21.333 10.667-42.667 10.667-66.133 0-32-4.267-61.867-17.067-89.6 87.467-6.4 164.267-81.067 164.267-164.267v-34.133h155.733c68.267 0 142.933 53.333 142.933 117.333v160c0 64-64 119.467-132.267 119.467zM580.267 586.667c29.867-23.467 66.133-38.4 106.667-38.4s76.8 14.933 106.667 38.4c40.533 32 66.133 81.067 66.133 134.4 0 96-76.8 172.8-172.8 172.8s-172.8-76.8-172.8-172.8c0-53.333 25.6-102.4 66.133-134.4zM520.533 349.867v0c-40.533-66.133-100.267-100.267-198.4-100.267-68.267 0-125.867 49.067-166.4 100.267-61.867-8.533-134.4-61.867-134.4-121.6v-160c0-64 98.133-117.333 166.4-117.333h322.133c68.267 0 142.933 53.333 142.933 117.333v160c0 66.133-64 121.6-132.267 121.6zM339.2 654.934c-96 0-172.8-76.8-172.8-172.8 0-55.467 25.6-104.533 66.133-134.4 29.867-23.467 66.133-38.4 106.667-38.4s76.8 14.933 106.667 38.4c40.533 32 66.133 81.067 66.133 134.4 0 96-78.933 172.8-172.8 172.8z" />
<glyph unicode="&#xe624;" glyph-name="help" d="M298.667 797.867c38.4 25.6 85.333 51.2 145.067 51.2 76.8 0 140.8-12.8 192-51.2s76.8-89.6 76.8-162.133c0-42.667-12.8-81.067-34.133-110.933-12.8-17.067-38.4-42.667-72.533-68.267l-34.133-25.6c-21.333-17.067-51.2-34.133-55.467-55.467-4.267-12.8 0-179.2 0-179.2h-132.267c0 0 0 183.467 0 226.133 0 25.6 46.933 68.267 85.333 93.867l38.4 29.867c12.8 8.533 21.333 17.067 29.867 29.867 12.8 12.8 17.067 34.133 17.067 55.467 0 25.6-8.533 51.2-21.333 68.267-17.067 21.333-42.667 29.867-81.067 29.867s-68.267-29.867-85.333-55.467c-17.067-25.6-25.6-12.8-25.6-98.133h-145.067c4.267 85.333 38.4 183.467 102.4 221.867zM405.333 106.667h85.333v-85.333h-85.333v85.333z" />
<glyph unicode="&#xe625;" glyph-name="history" d="M852.011 789.846v80.384c0 22.4-12.8 40.405-34.816 40.405h-605.184c-22.4 0-40.021-18.005-40.021-40.405v-80.811c0-22.4 17.579-39.211 40.021-39.211h40.789c-0.811 0-3.2-144.384 59.605-218.795 16.384-19.2 21.205-24.405 61.611-64.811l-0.811-80c0 0-44.8-45.611-61.184-65.195-62.421-74.411-60.416-218.795-59.221-218.795h-40.789c-22.4 0-40.021-16.811-40.021-39.211v-80.811c0-22.4 17.579-40.405 40.021-40.405h604.8c22.4 0 34.816 18.005 34.816 40.405v80.811c0 22.4-12.8 39.211-34.816 39.211h-40.789c0.811 0-0.384 144.384-63.189 218.795-16.384 19.2-65.195 65.195-65.195 65.195v80.811c0 0 48.811 45.995 65.195 65.195 63.189 73.6 64.384 217.984 63.616 217.984h40.789c22.016 0 34.816 16.811 34.816 39.211zM688.384 295.083c50.816-59.605 47.616-192.384 47.616-192.384h-80.384c-34.005 71.211-97.195 82.005-115.584 83.584v44.416c0 4.395-3.584 8.021-8.021 8.021h-40.021c-4.395 0-8.021-3.584-8.021-8.021v-44.416c-73.6-6.784-110.805-83.584-110.805-83.584h-80c0 0-0.811 132.779 50.005 192.384 17.195 20.011 71.595 50.389 71.595 50.389l1.195 121.216v37.205l38.016-39.595 40.405-41.984h40.405l80.811 84.011h4.779v-160.811c-0.384 0.384 51.2-29.995 68.011-50.389zM688.384 558.251c-17.579 22.016-70.016 70.016-194.005 70.016-89.6 0-134.784-44.416-152.405-67.2-48.811 60.8-49.195 189.611-48.811 189.611h442.795c0.384 0 3.2-132.779-47.616-192.384zM532.011 398.678h-40.021c-4.395 0-8.021-3.584-8.021-8.021v-88.021c0-4.395 3.584-8.021 8.021-8.021h40.021c4.395 0 8.021 3.584 8.021 8.021v88.021c0 4.395-3.584 8.021-8.021 8.021z" />
<glyph unicode="&#xe626;" glyph-name="hitory_back" d="M725.333 896c0 25.6-17.067 42.667-42.667 42.667h-640c-25.6 0-42.667-17.067-42.667-42.667v-85.333c0-25.6 17.067-42.667 42.667-42.667h640c25.6 0 42.667 17.067 42.667 42.667v85.333zM725.333 42.667c0 25.6-17.067 42.667-42.667 42.667h-640c-25.6 0-42.667-17.067-42.667-42.667v-85.333c0-25.6 17.067-42.667 42.667-42.667h640c25.6 0 42.667 17.067 42.667 42.667v85.333zM179.2 563.2c-51.2 64-51.2 204.8-51.2 204.8h-42.667c0 0-4.267-153.6 64-230.4 17.067-21.333 21.333-42.667 64-55.467v-106.667c-42.667-12.8-46.933-38.4-64-55.467-68.267-81.067-64-234.667-64-234.667h42.667c0 0 0 140.8 51.2 204.8 21.333 21.333 34.133 51.2 76.8 51.2v170.667c-42.667 0-55.467 29.867-76.8 51.2zM512 371.2v110.933c0 12.8 46.933 34.133 64 55.467 68.267 76.8 64 230.4 64 230.4h-42.667c0 0 0-140.8-51.2-204.8-21.333-21.333-34.133-51.2-76.8-51.2v-170.667c42.667 0 55.467-29.867 76.8-51.2 51.2-64 51.2-204.8 51.2-204.8h42.667c0 0 4.267 153.6-64 230.4-17.067 21.333-64 42.667-64 55.467zM170.667 554.667c0 0 42.667 85.333 170.667 85.333 170.667 0 213.333-85.333 213.333-85.333l-42.667-42.667h-42.667l-85.333-85.333h-42.667l-85.333 85.333h-42.667l-42.667 42.667zM512 85.334c-128 0-298.667 0-298.667 0s42.667 85.333 128 85.333h42.667c0 0 85.333 0 128-85.333zM354.133 213.334h21.333v-42.667h-21.333v42.667zM354.133 384h25.6v-85.333h-25.6v85.333zM648.533 426.667l204.8 204.8c8.533 8.533 17.067 8.533 25.6 4.267s17.067-17.067 17.067-25.6v-98.133h170.667c17.067 0 0-4.267 0-17.067v-174.933c0-17.067 17.067-17.067 0-17.067h-170.667v-98.133c0-12.8-4.267-21.333-17.067-25.6-4.267 0-4.267-4.267-8.533-4.267-8.533 0-12.8 4.267-21.333 8.533l-200.533 200.533c-4.267 4.267-8.533 12.8-8.533 21.333s4.267 17.067 8.533 21.333z" />
<glyph unicode="&#xe627;" glyph-name="home" d="M1019.733 354.134c0 8.533-8.533 21.333-17.067 29.867l-128 123.733-21.333 25.6v192c0 25.6-29.867 42.667-64 42.667s-64-17.067-64-42.667v-68.267l-183.467 183.467c-8.533 8.533-17.067 12.8-29.867 12.8 0 0 0 0-4.267 0s0 0-4.267 0c-12.8 0-21.333-4.267-29.867-12.8l-264.533-268.8-192-192c-8.533-8.533-17.067-21.333-17.067-29.867 4.267-51.2 42.667-51.2 42.667-51.2h128v-294.4c0-25.6 21.333-46.933 46.933-46.933h294.4v213.333c0 25.6 17.067 42.667 42.667 42.667h85.333c25.6 0 42.667-17.067 42.667-42.667v-213.333h123.733c25.6 0 46.933 21.333 46.933 46.933v294.4h128z" />
<glyph unicode="&#xe628;" glyph-name="Info_krug" d="M605.611 227.456c0 0 0 228.395 0 276.395 0 0-0.811 63.189-31.616 63.189-35.584 0-101.205 0-133.205 0-11.605 0-18.816 0-18.816 0s0 0 0 0c-2.816 0-48-2.389-48-46.805 0-7.211 1.195-13.184 2.816-18.005 9.216-26.795 37.589-28.416 43.179-28.416 0.384 0 0.811-0.384 0.811-0.384h31.616v-247.211h-29.995c-32 0-63.616-11.989-63.616-59.989v-30.805c0-8.789 0.811-16.811 2.389-23.211 9.6-38.4 43.605-39.595 59.605-39.595h184.405c48.384 0 60.8 32 60.8 62.805 0 0 0 0 0 30.805-0.384 30.379-30.379 61.184-60.416 61.184zM482.816 627.072h91.989c16.811 0 30.805 13.611 30.805 30.805v91.989c0 16.811-13.611 30.805-30.805 30.805h-91.989c-16.811 0-30.805-13.611-30.805-30.805v-91.989c0-17.195 13.995-30.805 30.805-30.805zM512 866.262c117.205 0 227.584-45.611 310.784-128.811s128.811-193.195 128.811-310.784-45.611-227.584-128.811-310.784-193.195-128.811-310.784-128.811-227.584 45.611-310.784 128.811-128.811 193.579-128.811 310.784 45.611 227.584 128.811 310.784 193.621 128.811 310.784 128.811zM512 926.678c-276.011 0-500.011-224-500.011-500.011s224-500.011 500.011-500.011 500.011 224 500.011 500.011-224 500.011-500.011 500.011v0z" />
<glyph unicode="&#xe629;" glyph-name="item" d="M916.011 650.667c0 0.384 0 0.811 0 1.621v3.584c0 8.405-3.2 16.384-9.216 22.4l-235.989 243.2c-6.016 5.589-13.995 9.216-22.784 9.216h-473.6c-61.611 0-66.389-36.779-66.389-48.384v-895.189c0-32.384 34.816-68.395 66.389-68.395h683.221c31.616 0 58.411 27.989 58.411 60.8v669.611c0 0.384 0 1.195 0 1.621zM807.211 682.667h-135.211v136.405l135.211-136.405zM178.005-17.322c-2.005 1.621-4.821 4.395-6.016 6.784v877.184c0.811 0 1.579 0 2.389 0h433.579v-216.021c0-17.621 14.379-32 32-32h212.011v-635.989h-674.005z" />
<glyph unicode="&#xe62a;" glyph-name="key" d="M1015.211 239.446l-190.805 190.805c-3.2 3.2-7.211 4.779-11.179 4.779-4.395 0-8.405-1.579-11.221-4.779l-86.784-86.784c-6.4-6.4-6.4-16.384 0-22.784l40.789-40.789-28.416-28.416-314.795 314.795c18.389 37.589 25.984 80.384 21.205 120.789-5.205 46.421-24.789 88.405-56.789 120.789-38.016 37.589-88.789 58.795-143.616 58.795 0 0 0 0 0 0-59.221 0-118.016-25.6-161.579-68.779-86.784-86.784-91.221-223.616-9.984-304.811 37.589-37.589 88.405-58.411 143.189-58.411 33.621 0 66.816 7.595 97.579 22.4l465.579-465.621c3.2-3.2 7.211-4.779 11.221-4.779s8.021 1.579 11.179 4.779l86.784 86.784c6.4 6.4 6.4 16.384 0 22.784l-41.6 41.6 28.416 28.416 40.789-40.789c3.2-3.2 7.211-4.821 11.179-4.821s8.021 1.621 11.221 4.821l86.784 86.784c7.211 6.016 7.211 16 0.811 22.4zM127.189 641.451c1.621 25.216 13.184 49.579 32 68.395 20.395 20.395 47.616 32.384 74.411 32.384 22.016 0 41.6-8.021 56.021-22.016 15.616-15.616 23.595-38.016 22.016-61.995-1.621-25.216-13.184-49.195-32-68.395-20.395-20.395-47.616-32.384-74.411-32.384-22.016 0-41.6 8.021-56.021 22.016-16 15.616-23.595 37.589-22.016 61.995z" />
<glyph unicode="&#xe62b;" glyph-name="link" d="M1001.6 825.856c-6.784 6.784-13.995 10.795-25.984 10.795v0h-361.216c-14.805 0-29.611-9.984-35.2-23.595s-3.584-30.421 6.784-41.216l80.384-80.384-272.384-272.384c-14.379-14.379-19.584-36.011-5.205-50.389l155.605-155.605c7.211-7.211 17.621-10.795 28.416-10.795 10.411 0 20.395 3.584 27.605 10.411l272.384 272.384 74.795-74.795c6.784-6.784 16-9.984 25.216-9.984 5.589 0 10.795 1.195 16 3.2 4.395 2.005 9.216 5.205 12.416 8.405 6.784 6.784 11.179 16.384 11.179 26.411v361.6c0 9.984-4.011 19.2-10.795 25.984zM775.595 294.272v-164.395c0-7.211-6.016-12.8-12.8-12.8h-634.411c-7.211 0-12.8 6.016-12.8 12.8v445.611c0 7.211 6.016 12.8 12.8 12.8h341.205l102.784 102.784-1.195 1.195h-445.611c-62.805 0-114.005-51.2-114.005-114.005v-447.616c0-62.805 51.2-114.005 114.005-114.005h639.616c62.805 0 114.005 51.2 114.005 114.005v253.611l-6.784 6.784-96.811-96.811z" />
<glyph unicode="&#xe62c;" glyph-name="list" d="M933.205 894.678h-842.411c-30.379 0-54.784-24.405-54.784-54.784v-842.795c0-29.995 24.405-54.784 54.784-54.784h842.795c29.995 0 54.784 24.405 54.784 54.784v842.795c-0.384 30.421-24.789 54.784-55.211 54.784zM635.989 702.678v-696.021h-248.021v696.021h248.021zM100.011 702.678h224v-696.021h-224v696.021zM699.989 6.656v696.021h224v-696.021h-224z" />
<glyph unicode="&#xe62d;" glyph-name="load" d="M1006.379 290.262c2.005 62.805-27.179 121.984-77.995 160.384 5.589-29.184 9.6-59.605 9.6-90.795 0.384-52.395-9.984-107.221-42.411-166.4-7.595-13.184-16.384-26.795-27.221-38.784h11.989c65.621 24.021 125.995 55.595 125.995 135.595zM859.221 481.878c-6.4 25.984-10.795 51.584-17.195 77.611l116.395 54.016 6.4 4.395c8.789 4.395 12.416 7.211 12.416 14.805l-3.584 8.789c-2.005 4.395-8.789 6.4-10.795 8.789l-310.784 164.011c-2.005 2.005-6.4 2.005-8.789 2.005-2.005 0-4.395 0-6.4-2.005-4.395-2.005-8.789-6.4-10.795-10.795l-64.811-205.184-38.784-127.189c-2.005-4.395-2.005-8.789 0-12.8 0-2.005 2.005-4.395 4.395-6.4 4.395-2.005 8.789-4.395 12.8-4.395 2.005 0 4.395 0 6.4 2.005l109.995 43.179c8.789 0 30.379-86.4 32.384-94.805 4.395-30.421 0-60.416-10.795-88.405-19.584-56.021-58.411-101.589-112.384-125.184-25.984-10.795-54.016-21.589-82.005-30.379-41.216-12.8-86.4-19.584-129.579-19.584-30.379 0-60.416 4.779-88.405 12.8-2.005 0-4.395 0-6.4 0-8.789 0-17.195-6.016-21.589-14.805v0c-2.005-6.4-2.005-12.8 2.005-19.2 2.005-4.395 4.395-6.4 8.789-8.405 86.4-47.616 168.405-66.816 244.011-66.816 112.384 0 207.189 43.179 272 94.805 8.789 6.4 17.195 15.189 25.984 21.589 23.595 21.589 41.216 45.184 54.016 66.816 47.189 86.016 34.389 169.984 15.189 260.821zM620.8 395.862c-1.579 5.589-3.2 12.416-5.205 19.2l-54.784-22.4c-0.811-0.384-1.195-0.384-2.005-0.811-1.579-0.384-2.816-0.811-4.011-1.195-6.784-2.005-13.995-3.584-23.211-3.584-17.195 0-35.584 6.784-50.005 18.389-0.384 0.384-0.811 0.811-1.195 1.195-7.211 7.211-12.416 14.805-17.621 25.216-7.595 15.189-8.789 34.005-3.2 53.589 0 0 0 0.384 0 0.384l44.416 141.611c-41.984 33.195-90.795 51.2-140.8 51.2-8.021 0-15.616 0-22.4-1.621-0.811 0-1.195-0.384-2.005-0.384-36.779-3.584-71.211-16-102.4-36.821-8.789-6.016-17.621-12.8-25.6-19.584-16.384-14.379-30.379-31.189-42.411-49.621-6.016-9.216-11.605-18.816-16-29.184-16.384-34.816-24.789-72.405-24.789-112 0-16 2.389-33.579 4.011-42.795 0-0.811 0.384-2.005 0-2.816 0-2.816-1.195-5.589-2.816-8.021-2.389-3.2-6.016-5.205-9.984-5.589-27.605-2.816-53.205-16.384-72.021-38.4-18.816-22.4-29.611-51.2-29.611-81.195 0-5.589 0-10.795 1.621-14.805 0.384-1.621 0.811-2.816 0.811-4.395 0-0.384 0.384-2.005 0.811-2.816 0.384-2.005 1.195-4.821 1.621-7.595 0.811-2.389 1.579-5.589 2.005-8.021 13.995-40.789 56.789-50.389 81.195-54.4h79.189c15.189 24.021 41.6 39.211 68.779 39.211 0.384 0 0.811-0.384 1.579 0 1.621 0.384 4.011 0.384 6.784 0.384 4.011 0 7.595-0.811 10.795-1.579 20.779-6.4 44.8-9.6 71.211-9.6 48.384 0 106.795 12.416 160.384 33.621 5.589 2.816 11.221 4.779 15.189 6.016s8.405 2.816 11.989 4.779c41.216 20.395 70.016 52.821 83.584 93.184 0 0 0 0.384 0 0.384 5.205 14.805 8.405 30.379 8.405 45.995 0 5.205 0 9.984-0.384 15.189-0.384 2.389-1.195 5.589-2.005 9.6z" />
<glyph unicode="&#xe62e;" glyph-name="logOut" d="M768 490.667v115.2c0 76.8-12.8 149.333-64 204.8-46.933 51.2-110.933 85.333-187.733 85.333s-157.867-34.133-204.8-85.333c-46.933-55.467-55.467-128-55.467-204.8v-115.2c0 0-85.333 0-85.333-119.467v-413.867h682.667c0 0 0 298.667 0 413.867 0 119.467-85.333 119.467-85.333 119.467zM576 42.667h-123.733l46.933 166.4c-25.6 8.533-46.933 34.133-46.933 64 0 34.133 29.867 64 64 64s64-25.6 64-59.733c0-29.867-21.333-55.467-46.933-64l42.667-170.667zM682.667 512h-341.333v102.4c0 0-8.533 183.467 170.667 187.733 29.867 0 170.667 0 170.667-187.733v-102.4z" />
<glyph unicode="&#xe62f;" glyph-name="MyAccount" d="M731.989 171.478v175.616c-11.989 1.195-24.789 4.395-38.784 12.416-28.8 16-44.8 45.184-44.8 81.195 0 9.6 1.195 18.389 3.584 26.411-8.405-7.211-16.811-14.421-26.411-20.821-52.779-37.205-115.2-56.789-180.395-56.789s-127.616 19.584-180.395 56.789c-27.605 19.584-50.389 42.411-68.395 68.395-84.395-1.621-168.405-78.805-168.405-155.605v-191.189c0-77.611 110.379-165.205 196.011-165.205h409.984c-1.579 8.021-2.389 17.195-2.389 26.795v32.811c0.384 63.616 40.405 104.405 100.395 109.184zM301.184 507.862c39.595-31.616 89.216-51.2 143.616-51.2s104.021 19.584 143.616 51.2c11.605 9.216 22.4 19.584 32 30.421 35.584 40.789 57.216 93.184 57.216 151.595 0 128.384-104.405 233.216-233.216 233.216s-232.405-104.789-232.405-233.216c0-57.984 22.016-110.805 57.216-151.595 9.6-10.795 20.395-21.205 32-30.421zM955.989 127.872c0 0 0 243.584 0 295.211 0 0-0.811 67.2-33.621 67.2-38.016 0-107.989 0-142.379 0-12.416 0-20.395 0-20.395 0s0 0 0 0c-3.2 0-51.584-2.389-51.584-50.005 0-7.595 1.195-13.995 2.816-19.584 9.6-28.416 40.405-29.995 45.995-29.995 0.811 0 0.811-0.384 0.811-0.384h33.621v-264.021h-32.384c-34.389 0-67.584-12.8-67.584-64.384v-32.811c0-9.6 1.195-17.621 2.816-24.789 10.411-41.216 46.421-41.984 63.616-41.984h196.821c51.584 0 64.811 34.005 64.811 66.816 0 0 0 0 0 32.811s-31.189 66.005-63.189 66.005zM824.789 554.667h98.389c18.005 0 32.811 14.805 32.811 32.811v98.389c0 18.005-14.805 32.811-32.811 32.811h-98.389c-18.005 0-32.811-14.805-32.811-32.811v-98.389c0-18.005 14.805-32.811 32.811-32.811z" />
<glyph unicode="&#xe630;" glyph-name="news" d="M320 446.678h144v-144h-144v144zM320 710.656h532.011v-171.989h-532.011v171.989zM555.989 446.678h296.021v-59.989h-296.021v59.989zM555.989 318.678h296.021v-59.989h-296.021v59.989zM555.989 198.656h296.021v-56.021h-296.021v56.021zM184.021 858.667v-123.989h-152.021v-630.4c0-60.416 51.2-109.611 111.616-109.611h737.195c60.416 0 107.221 49.195 107.221 109.611v754.389h-804.011zM184.021 104.278c0-21.589-20.395-38.784-41.984-38.784-21.205 0-41.984 17.195-41.984 38.784v562.389h84.011v-562.389zM920.021 104.278c0-21.589-17.621-41.6-39.211-41.6h-634.411c4.395 11.989 5.589 27.989 5.589 41.6v686.379h667.989v-686.379z" />
<glyph unicode="&#xe631;" glyph-name="office" d="M900.267 716.8h-759.467c-38.4 0-68.267-29.867-68.267-64v-85.333c0-34.133 29.867-64 68.267-64h759.467c38.4 0 68.267 25.6 68.267 64v85.333c4.267 34.133-29.867 64-68.267 64zM217.6 567.467c-21.333 0-38.4 17.067-38.4 38.4s17.067 38.4 38.4 38.4 38.4-17.067 38.4-38.4-17.067-38.4-38.4-38.4zM345.6 567.467c-21.333 0-38.4 17.067-38.4 38.4s17.067 38.4 38.4 38.4 38.4-17.067 38.4-38.4-17.067-38.4-38.4-38.4zM857.6 567.467c-21.333 0-38.4 17.067-38.4 38.4s17.067 38.4 38.4 38.4 38.4-17.067 38.4-38.4-17.067-38.4-38.4-38.4zM900.267 418.134h-759.467c-38.4 0-68.267-29.867-68.267-64v-85.333c0-34.133 29.867-64 68.267-64h337.067v-119.467h-302.933c-17.067 0-38.4-17.067-38.4-34.133v-12.8c0-21.333 17.067-34.133 38.4-34.133h695.467c17.067 0 34.133 17.067 34.133 34.133v12.8c0 21.333-17.067 34.133-34.133 34.133h-307.2v119.467h337.067c38.4 0 68.267 25.6 68.267 64v85.333c4.267 38.4-29.867 64-68.267 64zM217.6 268.8c-21.333 0-38.4 17.067-38.4 38.4s17.067 38.4 38.4 38.4 38.4-17.067 38.4-38.4-17.067-38.4-38.4-38.4zM345.6 268.8c-21.333 0-38.4 17.067-38.4 38.4s17.067 38.4 38.4 38.4 38.4-17.067 38.4-38.4-17.067-38.4-38.4-38.4zM857.6 268.8c-21.333 0-38.4 17.067-38.4 38.4s17.067 38.4 38.4 38.4 38.4-17.067 38.4-38.4-17.067-38.4-38.4-38.4z" />
<glyph unicode="&#xe632;" glyph-name="office_manage" d="M296.021 662.272l328.021 75.989v-104.789l17.195-8.021c0 0 0 0 0.384 0l7.595-3.584 6.4 2.389 14.379 43.989c0.384 0.811 0.384 1.195 0.811 2.005l2.816 6.784c6.016 15.189 20.821 25.6 37.205 25.6h57.984c16.811 0 32-10.411 37.589-26.411l18.816-51.584 6.4-2.389 42.795 21.589c0 0 0 0 0 0l7.595 4.011c5.589 2.816 11.605 4.395 18.005 4.395 1.621 0 2.816 0 4.395-0.384v155.989l-283.221 94.805-509.184-196.011v-566.4h1.195l182.784 75.989v445.995zM884.395 173.483l-51.2 24.021-6.784-2.816-14.379-44.8-2.389-9.216c-4.821-17.621-20.395-29.995-38.784-29.995h-57.984c-17.195 0-32 10.795-37.589 26.795l-19.584 56.405-7.211 3.2-6.4-3.2-18.005-9.216v-110.805l-509.995 66.389 507.605-181.589 282.411 90.795v120.021c-0.811 0-1.621 0-2.389 0-6.016 0-11.605 1.195-17.195 4.011zM992 382.251v57.984l-6.4 2.816-61.184 20.395-16 40.021 32 67.584-40.789 40.789-7.595-4.011-58.411-29.184-40.021 14.805-25.216 69.205h-57.984l-2.816-6.784-20.395-61.995-40.021-16-23.211 11.179-44.416 20.821-41.216-41.216 4.011-7.595 29.611-58.411-18.816-40.021-73.216-25.216v-57.984l10.795-2.816 64-20.395 17.195-40.021-31.616-67.584 41.216-41.216 7.595 4.011 58.411 29.611 39.979-18.816 25.216-72.405h57.984l2.816 10.411 20.395 63.189 40.021 17.195 67.584-31.616 41.216 41.216-4.011 7.595-29.611 58.411 14.805 40.021 68.011 25.984zM744.021 346.667c-35.2 0-64 28.8-64 64s28.8 64 64 64 64-28.8 64-64-28.8-64-64-64z" />
<glyph unicode="&#xe633;" glyph-name="Office365" d="M626.091 902.4l-513.195-197.547v-570.88h1.195l184.235 76.587v449.493l330.581 76.587v-669.611l-514.005 66.944 511.616-183.040 284.629 91.52v764.373zM114.091 133.974h0.384z" />
<glyph unicode="&#xe634;" glyph-name="open" d="M221.867 554.667h708.267c0 0 8.533-12.8 8.533-12.8v89.6c0 89.6-183.467 93.867-183.467 93.867h-311.467c0 128-89.6 128-89.6 128s-145.067 0-221.867 0c-89.6 0-89.6-132.267-89.6-132.267v-537.6l81.067 243.2c12.8 21.333 51.2 128 98.133 128zM896 469.334h-640c-29.867 0-42.667-38.4-59.733-72.533l-132.267-320c0-72.533 29.867-76.8 64-76.8h669.867c8.533 0 42.667 17.067 76.8 51.2 42.667 85.333 106.667 332.8 106.667 375.467s-55.467 42.667-85.333 42.667z" />
<glyph unicode="&#xe635;" glyph-name="pdf" d="M916.395 534.656h-56.405v114.389c0 0.384 0 1.195 0 1.621s0 0.811 0 1.621v3.584c0 8.405-3.2 16.384-9.216 22.4l-235.989 243.2c-6.016 5.589-14.421 9.216-22.784 9.216h-473.6c-61.611 0-66.389-36.779-66.389-48.384v-895.189c0-32.384 34.816-68.395 66.389-68.395h683.221c31.616 0 58.411 27.989 58.411 60.8v131.2h56.405c41.216 2.816 77.611 42.795 77.611 93.611v238.379c0 50.816-36.011 89.216-77.611 91.989zM616.021 819.072l135.211-136.405h-135.211v136.405zM795.989-17.322h-674.389c-2.005 1.621-5.589 4.395-5.589 6.784v877.184c0 0 1.579 0 2.389 0h433.579v-216.021c0-17.621 14.379-32 32-32h212.011v-84.011h-542.805c-43.179 0-81.195-39.211-81.195-91.989v-238.379c0-52.821 38.016-93.611 81.195-93.611h542.805v-128zM695.595 325.888c0-44.416-16-74.795-38.4-93.611-24.405-20.395-63.189-29.995-108.8-29.995-27.221 0-45.611 1.621-61.184 3.584v227.2c20.821 3.2 45.995 4.821 72.405 4.821 43.989 0 73.6-8.021 95.616-24.789 24.405-18.005 40.405-46.379 40.405-87.211zM457.984 365.483c0-22.784-7.595-41.984-21.589-54.784-18.005-16.811-44.8-24.405-75.605-24.405-6.784 0-13.184 0.384-18.389 1.195v-83.584h-46.379v229.205c10.411 2.816 36.395 4.821 68.395 4.821 32.384 0 54.016-6.016 69.589-18.389 14.805-11.989 24.021-31.189 24.021-54.016zM870.016 395.051h-88.021v-56.789h88.021v-46.421h-88.021v-87.979h-51.584v232.789h139.605v-41.6zM567.595 397.483c-11.605 0-18.005-1.195-23.211-2.005v-151.595c5.205-1.195 11.221-1.195 18.005-1.195 47.189-0.384 78.421 25.6 78.421 81.195 0 48.384-27.989 73.6-73.216 73.6zM364.8 398.251c-10.795 0-16.811-1.195-22.016-2.005v-68.395c5.205-1.195 10.411-1.195 18.005-1.195 27.605 0 44.8 13.995 44.8 37.589 0 21.205-14.805 34.005-40.789 34.005z" />
<glyph unicode="&#xe636;" glyph-name="phone" d="M884.779 794.667h-153.6v52.395c0 37.589-30.421 67.584-67.584 67.584h-553.216c-37.589 0-67.584-30.379-67.584-67.584v-833.195c0-37.589 30.421-67.584 67.584-67.584h552.405c37.589 0 67.584 30.379 67.584 67.584v270.805h153.6c53.205 0 96.384 43.221 96.384 96.384v317.184c0.811 53.205-42.411 96.384-95.616 96.384zM386.816-21.717c-19.2 0-34.389 15.616-34.389 34.389 0 19.2 15.616 34.389 34.389 34.389s34.389-15.616 34.389-34.389c0-19.2-15.189-34.389-34.389-34.389zM649.6 75.478h-525.611v758.016h525.995v-38.784h-187.989c-53.205 0-96.384-43.179-96.384-96.384v-317.184c0-53.205 43.179-96.384 96.384-96.384h16.384c-9.984-26.795-30.379-62.805-72.021-86.4-13.995-3.584-10.411-28.416 3.584-31.616 13.995-3.584 125.611 3.584 178.389 84.779 9.216 14.421 16.384 25.216 21.589 33.621h40.021v-209.621zM831.189 382.678h-315.989c-15.616 0-27.989 12.416-27.989 27.989s12.416 27.989 27.989 27.989h315.989c15.616 0 27.989-12.416 27.989-27.989s-12.8-27.989-27.989-27.989zM831.189 510.678h-315.989c-15.616 0-27.989 12.416-27.989 27.989s12.416 27.989 27.989 27.989h315.989c15.616 0 27.989-12.416 27.989-27.989s-12.8-27.989-27.989-27.989zM831.189 638.678h-315.989c-15.616 0-27.989 12.416-27.989 27.989s12.416 27.989 27.989 27.989h315.989c15.616 0 27.989-12.416 27.989-27.989s-12.8-27.989-27.989-27.989z" />
<glyph unicode="&#xe638;" glyph-name="Quote" d="M536.021 456.278v-94.421c29.184 5.589 46.379 24.021 46.379 51.2 0 21.205-14.805 32-46.379 43.179zM451.584 610.646c0-15.616 11.605-24.789 36.395-33.621v77.184c-22.784-6.016-36.395-22.016-36.395-43.605zM845.611 906.667h-664.021c-84.011 0-153.6-70.4-153.6-153.984v-502.784c0-84.011 69.589-150.784 153.216-150.784h22.784c-16-43.989-6.784-80-70.4-116.395-22.016-5.589-16.811-44.416 5.589-50.005 22.016-5.589 155.989-10.795 239.189 116.779 13.184 20.395 24.021 33.621 32 49.621h434.816c84.011 0 150.4 67.2 150.4 150.784v502.784c0.384 83.584-66.389 153.984-150.016 153.984zM536.021 268.288v-35.584c0-14.379-9.6-25.984-24.021-25.984s-24.021 11.605-24.021 25.984v35.584c-55.595 5.589-101.205 29.995-136.405 72.405-5.205 6.4-6.016 15.189-1.621 22.4l28.8 47.189c3.584 5.589 9.6 9.216 16.384 9.6 7.211 0.384 13.184-2.816 17.195-8.021 15.189-20.395 42.795-40.789 75.605-48.811v107.605c-59.179 17.195-130.816 44.416-130.816 138.411 0 75.605 52.821 130.389 130.816 139.989v36.011c0 14.421 9.6 25.984 24.021 25.984s24.021-11.605 24.021-25.984v-35.584c62.805-6.784 103.211-39.211 126.379-67.2 5.205-6.4 6.016-14.805 2.005-22.016l-26.411-45.611c-3.584-6.016-9.6-9.6-16.811-9.984s-13.611 2.816-17.579 8.405c-15.616 22.016-40.021 37.205-68.011 42.411v-92.8c62.379-17.621 140.8-45.184 140.8-148.011 0.384-81.621-55.211-137.984-140.416-146.389z" />
<glyph unicode="&#xe639;" glyph-name="refresh" d="M503.467 896c115.2 0 230.4-46.933 320-123.733l132.267 115.2c12.8 12.8 29.867 12.8 46.933 8.533 12.8-12.8 21.333-25.6 21.333-42.667v-384c0-25.6-17.067-42.667-42.667-42.667h-392.533c0 0 0 0 0 0-25.6 0-42.667 17.067-42.667 42.667 0 12.8 4.267 25.6 17.067 34.133l106.667 119.467c-51.2 38.4-106.667 59.733-166.4 59.733-149.333 0-290.133-136.533-290.133-281.6s123.733-273.067 264.533-273.067h34.133c25.6 0 42.667-17.067 42.667-42.667v-128c0-25.6-17.067-42.667-42.667-42.667h-34.133c-264.533 0-477.867 217.6-477.867 490.667 0 260.267 234.667 490.667 503.467 490.667z" />
<glyph unicode="&#xe63a;" glyph-name="reload" d="M908.8 571.734c-42.667 170.667-221.867 302.933-405.333 302.933-29.867 0-59.733-4.267-89.6-8.533 0 0 0 0 0 0s0 0 0 0c-93.867-25.6-170.667-81.067-226.133-157.867l-136.533 64c-8.533 4.267-21.333 4.267-29.867-4.267s-12.8-17.067-8.533-29.867l81.067-307.2c4.267-12.8 17.067-21.333 29.867-21.333 4.267 0 4.267 0 8.533 0l307.2 81.067c12.8 4.267 21.333 12.8 21.333 21.333 0 12.8-4.267 21.333-12.8 29.867l-119.467 76.8c29.867 42.667 72.533 72.533 123.733 85.333 12.8 4.267 29.867 4.267 46.933 4.267 102.4 0 204.8-81.067 230.4-183.467 0-8.533 8.533-12.8 12.8-17.067 8.533-4.267 12.8-4.267 21.333-4.267l123.733 29.867c8.533 0 12.8 8.533 17.067 12.8s4.267 17.067 4.267 25.6zM1011.2 76.8l-76.8 302.933c-4.267 17.067-21.333 25.6-34.133 21.333l-307.2-81.067c-12.8-4.267-21.333-12.8-21.333-21.333 0-12.8 4.267-21.333 12.8-29.867l115.2-76.8c-29.867-42.667-72.533-72.533-123.733-85.333-12.8-4.267-29.867-4.267-46.933-4.267-102.4 0-204.8 81.067-230.4 183.467 0 8.533-8.533 12.8-12.8 17.067s-12.8 4.267-21.333 4.267l-123.733-29.867c-8.533 0-12.8-8.533-17.067-12.8-4.267-8.533-4.267-12.8-4.267-21.333 42.667-170.667 221.867-302.933 405.333-302.933v0c29.867 0 59.733 4.267 89.6 12.8 0 0 0 0 0 0s0 0 0 0c93.867 25.6 170.667 81.067 226.133 162.133l132.267-68.267c4.267-4.267 8.533 0 12.8 0v0c17.067 0 29.867 8.533 29.867 25.6 0 0-4.267 4.267-4.267 4.267z" />
<glyph unicode="&#xe63b;" glyph-name="save" d="M624 830.678h72.021v-208h-72.021v208zM312.021 6.656v262.4c2.005 0.811 4.821 1.621 8.021 1.621h392.021v-264.021h-400zM856.021 894.678h-757.205c-30.421 0-54.784-24.405-54.784-54.784v-842.795c0-29.995 24.405-54.784 54.784-54.784h830.805c29.995 0 54.784 24.405 54.784 54.784v729.6l-128.384 168.021zM920.021 718.678v-712.021h-152.021v266.411c0 31.616-23.211 53.589-56.021 53.589h-392.021c-36.395 0-64-22.784-64-53.589v-266.411h-148.011v824.021h148.011v-243.2c0-18.389 24.021-32.811 43.989-32.811h436.011c20.011 0 27.989 14.379 27.989 32.811v243.2h68.011l88.021-112z" />
<glyph unicode="&#xe63c;" glyph-name="schedule" d="M640 896h-256v-132.267c0 0 0-81.067-85.333-81.067s-85.333 81.067-85.333 81.067v132.267h-85.333c-51.2 0-85.333-76.8-85.333-128v-682.667c0-85.333 42.667-128 128-128h682.667c85.333 0 128 42.667 128 128v682.667c0 51.2-34.133 128-85.333 128h-85.333v-128c0 0 0-85.333-85.333-85.333s-85.333 85.333-85.333 85.333v128zM896 128c0-25.6-59.733-42.667-85.333-42.667h-597.333c-25.6 0-85.333 25.6-85.333 51.2v503.467h768v-512zM341.333 768v128c0 0 0 42.667-42.667 42.667s-42.667-42.667-42.667-42.667v-128h85.333zM768 768v128c0 0 0 42.667-42.667 42.667s-42.667-38.4-42.667-42.667v-128h85.333zM213.333 554.667h85.333v-85.333h-85.333v85.333zM554.667 554.667h85.333v-85.333h-85.333v85.333zM725.333 554.667h85.333v-85.333h-85.333v85.333zM384 554.667h85.333v-85.333h-85.333v85.333zM213.333 426.667h85.333v-85.333h-85.333v85.333zM554.667 426.667h85.333v-85.333h-85.333v85.333zM725.333 426.667h85.333v-85.333h-85.333v85.333zM384 426.667h85.333v-85.333h-85.333v85.333zM213.333 298.667h85.333v-85.333h-85.333v85.333zM554.667 298.667h85.333v-85.333h-85.333v85.333zM725.333 298.667h85.333v-85.333h-85.333v85.333zM384 298.667h85.333v-85.333h-85.333v85.333z" />
<glyph unicode="&#xe63d;" glyph-name="search" d="M605.867 870.4c-183.467 0-332.8-149.333-332.8-332.8 0-51.2 12.8-102.4 34.133-145.067l-226.133-226.133c-17.067-17.067-17.067-42.667 0-59.733l110.933-110.933c8.533-8.533 17.067-12.8 29.867-12.8s21.333 4.267 29.867 12.8l234.667 234.667c38.4-17.067 76.8-21.333 119.467-21.333 183.467 0 332.8 149.333 332.8 332.8 0 179.2-149.333 328.533-332.8 328.533zM597.333 366.934c-93.867 0-170.667 76.8-170.667 170.667s76.8 170.667 170.667 170.667 170.667-76.8 170.667-170.667c0-93.867-76.8-170.667-170.667-170.667z" />
<glyph unicode="&#xe63e;" glyph-name="security_group" d="M356.395 481.067l3.2 0.384c-1.195 35.584-36.821 65.579-74.795 65.579-22.4-37.205-56.021-55.595-111.616-55.595-38.4 0-70.784 27.989-93.184 55.595-35.584-4.395-56.021-34.005-56.021-67.584v-89.216c0-36.395 34.816-63.616 73.216-63.616h154.795v37.589c0 59.989 44.8 109.184 104.405 116.821zM121.6 545.878c16.384-13.184 37.205-21.205 59.989-21.205s43.605 8.021 59.989 21.205c22.4 18.005 37.205 45.184 37.205 75.989 0 53.589-43.605 97.195-97.195 97.195s-97.195-43.605-97.195-97.195c0-31.189 14.805-58.411 37.205-75.989zM924.8 547.072c-22.4-37.205-56.021-55.595-112-55.595-38.4 0-70.4 27.989-93.184 55.595-35.2-4.395-55.211-33.579-55.211-66.816 58.795-7.211 103.211-56.405 103.211-116.011v-37.589h150.016c38.4 0 82.005 27.221 82.005 63.616v89.216c0.384 36.821-36.395 67.584-74.795 67.584zM761.6 545.878c16.384-13.184 37.205-21.205 59.989-21.205s43.605 8.021 59.989 21.205c22.4 18.005 37.205 45.184 37.205 75.989 0 53.589-43.605 97.195-97.195 97.195s-97.195-43.605-97.195-97.195c0-31.189 14.379-58.411 37.205-75.989zM663.595 457.856c-5.205 0.811-10.411 1.195-16 1.195-31.616-52.395-74.795-78.379-153.216-78.379-53.589 0-103.211 39.211-134.784 77.611 0 0.384 0.384 0.384 0 0.811-50.005-6.4-84.011-48-84.011-94.805v-143.616c0-51.2 62.805-105.984 116.779-105.984h254.805c54.016 0 96.384 54.784 96.384 105.984v143.616c0.384 45.995-33.621 86.016-80 93.611zM427.605 440.278c23.211-18.389 52.395-29.995 84.395-29.995s60.8 11.605 84.395 29.995c31.616 25.216 52.395 63.189 52.395 106.795 0 75.221-61.184 136.405-136.789 136.405s-136.789-61.184-136.789-136.405c0-43.605 20.395-82.005 52.395-106.795z" />
<glyph unicode="&#xe63f;" glyph-name="settings" d="M994.133 755.2c0 8.533-8.533 12.8-17.067 17.067-8.533 0-17.067 0-21.333-4.267l-102.4-102.4-85.333 21.333-21.333 85.333 102.4 102.4c4.267 4.267 8.533 12.8 4.267 21.333 0 8.533-8.533 12.8-17.067 17.067-76.8 21.333-157.867 0-213.333-55.467-51.2-51.2-76.8-128-59.733-200.533l-285.867-285.867c-64 12.8-140.8-8.533-192-64-55.467-55.467-76.8-136.533-55.467-213.333 0-8.533 8.533-12.8 17.067-17.067 8.533 0 17.067 0 21.333 4.267l102.4 102.4 85.333-21.333 21.333-85.333-102.4-102.4c-4.267-4.267-8.533-12.8-4.267-21.333 0-8.533 8.533-12.8 17.067-17.067 17.067-4.267 38.4-8.533 55.467-8.533 55.467 8.533 110.933 29.867 149.333 72.533 55.467 55.467 76.8 136.533 55.467 209.067l277.333 277.333c72.533-21.333 153.6 4.267 209.067 55.467 59.733 55.467 81.067 140.8 59.733 213.333z" />
<glyph unicode="&#xe640;" glyph-name="SharePoint" d="M865.579 511.318c-5.632 0-11.307-0.384-16.939-1.621-20.949 53.632-61.696 97.152-113.707 121.771 0.384 3.243 0.811 6.869 0.811 10.496 0 45.568-35.456 82.261-81.024 82.261-19.371 0-37.504-6.869-49.579-17.749v-129.408c12.075-11.307 30.635-17.749 49.579-17.749 28.203 0 52.395 14.123 67.328 35.456 42.325-20.949 75.392-57.643 91.904-102.4-18.56-14.933-30.635-37.888-30.635-63.701 0-26.197 12.075-49.195 31.061-64.512-16.512-45.568-50.005-82.645-93.141-104.021-14.933 21.376-38.315 35.456-66.517 35.456-19.371 0-37.504-6.869-49.579-17.749v-129.408c12.075-11.307 30.635-17.749 49.579-17.749 45.568 0 81.835 37.077 81.835 82.261 0 3.627-0.811 6.869-1.195 10.496 52.395 25.003 93.525 69.333 114.475 124.16 5.248-1.195 10.496-1.621 16.128-1.621 45.568 0 82.261 37.077 82.261 82.261-0.384 46.379-37.504 83.029-82.645 83.029zM76.203 106.155l476.117-87.083v815.189l-476.117-87.083v-641.024zM258.005 576.256c33.451 21.376 74.581 14.507 111.659 9.259 0.384-22.571 1.195-45.141 1.621-67.712-31.061 9.685-70.144 29.44-95.531-2.005-17.749-46.379 38.315-63.701 65.323-87.893 52.821-34.261 57.259-122.155 8.064-161.28-39.125-28.203-89.899-16.512-131.029 0.384-0.384 23.765-1.195 47.957-2.005 71.765 26.197-19.371 65.323-48.384 96.768-21.376 24.192 40.704-23.381 66.944-51.2 86.656-59.264 35.456-61.269 133.845-3.627 172.16z" />
<glyph unicode="&#xe641;" glyph-name="site" d="M933.205 894.678h-842.411c-30.379 0-54.784-24.405-54.784-54.784v-842.795c0-29.995 24.405-54.784 54.784-54.784h842.795c29.995 0 54.784 24.405 54.784 54.784v842.795c-0.384 30.421-24.789 54.784-55.211 54.784zM923.989 6.656h-824.021v824.021h91.989v-244.011c0-17.621 14.421-32 32-32h576c17.621 0 32 14.379 32 32v244.011h91.989v-824.021zM756.011 354.646h-491.989c-14.421 0-25.984-11.605-25.984-25.984s11.605-25.984 25.984-25.984h491.989c14.379 0 25.984 11.605 25.984 25.984s-11.605 25.984-25.984 25.984zM756.011 202.667h-491.989c-14.421 0-25.984-11.605-25.984-25.984s11.605-25.984 25.984-25.984h491.989c14.379 0 25.984 11.605 25.984 25.984s-11.605 25.984-25.984 25.984z" />
<glyph unicode="&#xe642;" glyph-name="site_collection" d="M512 499.2c-119.467 0-217.6 98.133-217.6 217.6s98.133 217.6 217.6 217.6c119.467 0 217.6-98.133 217.6-217.6 0-121.6-98.133-217.6-217.6-217.6zM512 857.6c-78.933 0-140.8-64-140.8-140.8 0-78.933 64-140.8 140.8-140.8 78.933 0 140.8 64 140.8 140.8s-61.867 140.8-140.8 140.8zM192 14.934c0-51.84-42.027-93.867-93.867-93.867s-93.867 42.027-93.867 93.867c0 51.84 42.027 93.867 93.867 93.867s93.867-42.027 93.867-93.867zM1024 14.934c0-51.84-42.027-93.867-93.867-93.867s-93.867 42.027-93.867 93.867c0 51.84 42.027 93.867 93.867 93.867s93.867-42.027 93.867-93.867zM597.333 14.934c0-51.84-42.027-93.867-93.867-93.867s-93.867 42.027-93.867 93.867c0 51.84 42.027 93.867 93.867 93.867s93.867-42.027 93.867-93.867zM902.4 366.934c-38.4 27.733-89.6 42.667-153.6 42.667h-74.667c-36.267 0-55.467 6.4-64 10.667-23.467 12.8-38.4 40.533-42.667 83.2l-4.267 27.733h-108.8l-2.133-27.733c-4.267-42.667-19.2-70.4-44.8-83.2-14.933-8.533-36.267-10.667-64-10.667h-93.867c-70.4 0-121.6-21.333-155.733-66.133-29.867-40.533-46.933-89.6-53.333-149.333l-4.267-34.133h117.333l4.267 27.733c2.133 21.333 10.667 42.667 27.733 61.867 12.8 14.933 38.4 23.467 74.667 23.467h68.267c49.067 0 85.333 6.4 115.2 19.2 21.333 8.533 44.8 25.6 61.867 51.2 14.933-21.333 36.267-38.4 61.867-51.2 27.733-12.8 68.267-19.2 117.333-19.2h51.2c32 0 57.6-4.267 74.667-10.667 17.067-8.533 42.667-23.467 44.8-72.533l2.133-29.867h115.2l-2.133 34.133c-2.133 87.467-25.6 142.933-68.267 172.8z" />
<glyph unicode="&#xe643;" glyph-name="SP_report" d="M379.733 661.334h366.933v-68.267h-366.933v68.267zM789.333-76.8h-558.933c-55.467 0-119.467 89.6-119.467 140.8v721.067c0 72.533 72.533 145.067 153.6 145.067h482.133l170.667-166.4v-695.467c-4.267-59.733-76.8-145.067-128-145.067zM264.533 861.867c-55.467 0-85.333-34.133-85.333-76.8v-716.8c0-25.6 38.4-72.533 55.467-76.8h558.933c17.067 4.267 55.467 51.2 55.467 76.8v661.333l-132.267 132.267h-452.267zM243.2 661.334h68.267v-68.267h-68.267v68.267zM379.733 494.934h366.933v-68.267h-366.933v68.267zM243.2 494.934h68.267v-68.267h-68.267v68.267zM379.733 324.267h366.933v-68.267h-366.933v68.267zM243.2 324.267h68.267v-68.267h-68.267v68.267zM379.733 157.867h366.933v-68.267h-366.933v68.267zM243.2 157.867h68.267v-68.267h-68.267v68.267zM844.8 772.267v-42.667h-132.267v132.267h42.667z" />
<glyph unicode="&#xe644;" glyph-name="subscription" d="M426.667 55.467c-4.267 0-10.667 2.133-14.933 6.4s-6.4 12.8-4.267 19.2l21.333 91.733c2.133 6.4 6.4 12.8 12.8 14.933s14.933 0 19.2-4.267l70.4-70.4c4.267-4.267 6.4-12.8 4.267-19.2s-8.533-12.8-14.933-12.8l-91.733-21.333c0-2.133 0-4.267-2.133-4.267zM458.667 128l-6.4-25.6 25.6 6.4-19.2 19.2zM742.4 527.488l128.213-128.213-256.427-256.427-128.213 128.213 256.427 256.427zM614.4 125.867c-4.267 0-10.667 2.133-14.933 6.4l-128 128c-4.267 4.267-6.4 8.533-6.4 14.933s2.133 10.667 6.4 14.933l256 256c4.267 4.267 8.533 6.4 14.933 6.4v0c4.267 0 10.667-2.133 14.933-6.4l128-128c8.533-8.533 8.533-19.2 0-27.733l-256-256c-4.267-6.4-8.533-8.533-14.933-8.533zM516.267 273.067l100.267-100.267 228.267 228.267-100.267 100.267-228.267-228.267zM855.68 639.446l128.213-128.213-49.792-49.792-128.213 128.213 49.792 49.792zM932.267 441.6c-6.4 0-10.667 2.133-14.933 6.4l-128 128c-8.533 8.533-8.533 21.333 0 27.733l51.2 51.2c8.533 8.533 21.333 8.533 27.733 0l128-128c8.533-8.533 8.533-21.333 0-27.733l-49.067-51.2c-4.267-4.267-8.533-6.4-14.933-6.4zM834.133 588.8l100.267-100.267 21.333 21.333-100.267 100.267-21.333-21.333zM669.867-64h-571.733c-42.667 0-76.8 34.133-76.8 74.667v832c0 40.533 34.133 74.667 76.8 74.667h571.733c42.667 0 76.8-34.133 76.8-74.667v-829.867c0-42.667-34.133-76.8-76.8-76.8zM98.133 853.334c-6.4 0-12.8-4.267-12.8-10.667v-829.867c0-8.533 6.4-12.8 12.8-12.8h571.733c6.4 0 12.8 4.267 12.8 10.667v832c0 6.4-6.4 10.667-12.8 10.667h-571.733zM597.333 682.667h-426.667c-17.067 0-32 14.933-32 32s14.933 32 32 32h426.667c17.067 0 32-14.933 32-32s-14.933-32-32-32zM576 512h-405.333c-17.067 0-32 14.933-32 32s14.933 32 32 32h405.333c17.067 0 32-14.933 32-32s-14.933-32-32-32zM384 341.334h-213.333c-17.067 0-32 14.933-32 32s14.933 32 32 32h213.333c17.067 0 32-14.933 32-32s-14.933-32-32-32zM320 170.667h-149.333c-17.067 0-32 14.933-32 32s14.933 32 32 32h149.333c17.067 0 32-14.933 32-32s-14.933-32-32-32z" />
<glyph unicode="&#xe645;" glyph-name="subsite" d="M933.205 894.678h-842.411c-30.379 0-54.784-24.405-54.784-54.784v-842.795c0-29.995 24.405-54.784 54.784-54.784h842.795c29.995 0 54.784 24.405 54.784 54.784v842.795c-0.384 30.421-24.789 54.784-55.211 54.784zM100.011 702.678h232.021v-696.021h-232.021v696.021zM395.989 6.656v696.021h528v-696.021h-528z" />
<glyph unicode="&#xe646;" glyph-name="superAdmin" d="M571.989 305.067v15.616c0 23.595 4.011 56.021 16 94.805-39.595-19.584-110.379-27.605-171.605-27.605-88.789 0-161.579 65.195-213.205 128.384-82.389-9.984-175.189-78.805-175.189-155.989v-207.189c0-84.821 124.416-152.021 213.205-152.021h280.021v213.589c0 43.221 28.8 72.789 50.816 90.411zM298.411 514.262c37.589-29.611 86.784-49.195 137.984-49.195 53.205 0 100.395 19.584 137.984 49.195 51.2 41.6 86.784 104.405 86.784 175.616 0 124.416-100.395 224.811-224.811 224.811s-224.811-100.395-224.811-224.811c2.005-73.216 35.2-134.016 86.784-175.616zM958.805 265.046v70.784c0 47.189-8.021 91.989-39.595 126.379-28.8 31.616-68.395 52.395-115.584 52.395s-97.195-21.205-126.379-52.395c-31.616-31.616-34.005-76.416-34.005-126.379v-70.784c0 0-52.395 0-52.395-73.6v-255.189h420.779c0 0 0 184.021 0 255.189s-52.821 73.6-52.821 73.6zM850.816-11.349h-115.584l41.984 131.584c-23.595 5.205-41.984 26.411-41.984 50.005 0 26.411 26.411 50.005 57.984 50.005s57.984-21.205 57.984-50.005c0-23.595-18.389-44.8-41.984-52.395l41.6-129.195zM905.984 277.888h-210.389v63.189c0 0-5.205 113.195 105.216 115.584 18.389 0 105.216 0 105.216-115.584v-63.189z" />
<glyph unicode="&#xe647;" glyph-name="trash" d="M853.333 810.667h-128v42.667c0 55.467-29.867 85.333-85.333 85.333h-256c-55.467 0-85.333-29.867-85.333-85.333v-42.667h-128c-25.6 0-42.667-17.067-42.667-42.667v-128h768v128c0 25.6-17.067 42.667-42.667 42.667zM640 802.134h-256v21.333c0 17.067 12.8 29.867 34.133 29.867h192c17.067 0 29.867-12.8 29.867-29.867v-21.333zM213.333 554.667v-554.667c0-46.933 38.4-85.333 85.333-85.333h426.667c46.933 0 85.333 38.4 85.333 85.333v554.667h-597.333zM384 42.667c0-25.6-17.067-42.667-42.667-42.667s-42.667 17.067-42.667 42.667v384c0 25.6 17.067 42.667 42.667 42.667s42.667-17.067 42.667-42.667v-384zM554.667 42.667c0-25.6-17.067-42.667-42.667-42.667s-42.667 17.067-42.667 42.667v384c0 25.6 17.067 42.667 42.667 42.667s42.667-17.067 42.667-42.667v-384zM725.333 42.667c0-25.6-17.067-42.667-42.667-42.667s-42.667 17.067-42.667 42.667v384c0 25.6 17.067 42.667 42.667 42.667s42.667-17.067 42.667-42.667v-384z" />
<glyph unicode="&#xe648;" glyph-name="user" d="M733.867 486.4v0c-51.2-85.333-130.133-125.867-258.133-125.867-89.6 0-164.267 64-215.467 125.867-83.2-10.667-177.067-76.8-177.067-153.6v-202.667c0-83.2 128-149.333 217.6-149.333h422.4c89.6 0 187.733 68.267 187.733 149.333v202.667c-4.267 85.333-87.467 153.6-177.067 153.6zM497.067 876.8c-123.733 0-226.133-98.133-226.133-219.733 0-70.4 34.133-132.267 87.467-172.8 38.4-29.867 87.467-49.067 138.667-49.067 53.333 0 100.267 19.2 138.667 49.067 53.333 40.533 87.467 102.4 87.467 172.8-2.133 121.6-102.4 219.733-226.133 219.733z" />
<glyph unicode="&#xe649;" glyph-name="usklicnik" d="M619.221 134.656v-93.184c0-33.195-26.795-59.989-59.989-59.989h-93.184c-33.195 0-59.989 26.795-59.989 59.989v93.184c0 33.195 26.795 59.989 59.989 59.989h93.184c33.195 0.384 59.989-26.795 59.989-59.989zM647.595 855.851c9.216-12.8 13.611-31.189 11.989-48.384l-45.995-480c-2.816-30.421-23.211-61.184-47.616-61.184h-107.179c-24.405 0-44.8 29.611-47.616 59.989l-46.805 485.589c-1.579 16.811 2.816 31.616 11.989 44.416s22.016 15.189 35.584 15.189l200.021-0.811c13.611 0.384 26.411-2.005 35.584-14.805z" />
<glyph unicode="&#xe64a;" glyph-name="warning" d="M1015.467 64l-465.067 806.4c-17.067 25.6-59.733 25.6-76.8 0l-465.067-806.4c-8.533-12.8-8.533-29.867 0-42.667s21.333-21.333 38.4-21.333h934.4c17.067 0 29.867 8.533 38.4 21.333 4.267 12.8 4.267 29.867-4.267 42.667zM576 119.467c0-21.333-17.067-34.133-34.133-34.133h-55.467c-21.333 0-34.133 17.067-34.133 34.133v55.467c0 21.333 17.067 34.133 34.133 34.133h55.467c21.333 0 34.133-17.067 34.133-34.133v-55.467zM571.733 294.4c0-17.067-12.8-38.4-29.867-38.4h-64c-12.8 0-25.6 17.067-29.867 34.133l-17.067 268.8c0 8.533 0 17.067 8.533 25.6s17.067 12.8 25.6 12.8h98.133c8.533 0 17.067 0 21.333-8.533s8.533-17.067 8.533-29.867l-21.333-264.533z" />
<glyph unicode="&#xe64b;" glyph-name="world" d="M512 908.8c-266.667 0-482.133-215.467-482.133-482.133s215.467-482.133 482.133-482.133 482.133 215.467 482.133 482.133-215.467 482.133-482.133 482.133zM808.533 209.067c-91.733-53.333-166.4-106.667-296.533-104.533-130.133 4.267-285.867 138.667-241.067 241.067s42.667 157.867 0 160c-42.667 4.267-160 81.067-81.067 160 81.067 81.067 162.133 81.067 162.133 81.067s132.267 100.267 121.6 19.2c-10.667-81.067-132.267-123.733-42.667-179.2s81.067 0 160-81.067c104.533-104.533-17.067-192 0-241.067s40.533-55.467 102.4-27.733c64 27.733 98.133 91.733 98.133 196.267 0 106.667-40.533 232.533 66.133 196.267 44.8-14.933 36.267-136.533 27.733-147.2-4.267-8.533 14.933-219.733-76.8-273.067z" />
<glyph unicode="&#xe64c;" glyph-name="permission_date" d="M336 869.888v-162.816c0-0.811 0-2.389-0.384-4.395h352.384c0 1.621 0 2.816 0 4.395v163.2c0 5.589 0.811 10.795 1.621 16.384h-356.011c2.005-8.405 2.389-14.805 2.389-16.811v0zM933.205 886.656h-67.2c1.621-8.405 1.621-14.805 1.621-16.384v-163.2c0-0.811 0-2.389 0-4.395h56.021v-704h-823.595v704h56.021c0 2.005 0 3.584 0 4.395v163.2c0 2.005 0 8.021 1.579 16.384h-66.816c-30.379 0-54.784-24.405-54.784-54.784v-842.795c0-29.995 24.405-54.784 54.784-54.784h842.795c29.995 0 54.784 24.405 54.784 54.784v842.795c-0.384 30.421-24.789 54.784-55.211 54.784zM299.989 526.678c0 11.179-9.216 20.011-20.011 20.011h-72.021c-11.179 0-20.011-9.216-20.011-20.011v-72.021c0-11.179 9.216-20.011 20.011-20.011h72.021c11.179 0 20.011 9.216 20.011 20.011v72.021zM480 526.678c0 11.179-9.216 20.011-20.011 20.011h-72.021c-11.179 0-20.011-9.216-20.011-20.011v-72.021c0-11.179 9.216-20.011 20.011-20.011h72.021c11.179 0 20.011 9.216 20.011 20.011v72.021zM299.989 374.656c0 11.221-9.216 20.011-20.011 20.011h-72.021c-11.179 0-20.011-9.216-20.011-20.011v-72.021c0-11.221 9.216-20.011 20.011-20.011h72.021c11.179 0 20.011 9.216 20.011 20.011v72.021zM480 374.656c0 11.221-9.216 20.011-20.011 20.011h-72.021c-11.179 0-20.011-9.216-20.011-20.011v-72.021c0-11.221 9.216-20.011 20.011-20.011h72.021c11.179 0 20.011 9.216 20.011 20.011v72.021zM660.011 526.678c0 11.179-9.216 20.011-20.011 20.011h-72.021c-11.221 0-20.011-9.216-20.011-20.011v-72.021c0-11.179 9.216-20.011 20.011-20.011h72.021c11.221 0 20.011 9.216 20.011 20.011v72.021zM843.989 526.678c0 11.179-9.216 20.011-20.011 20.011h-72.021c-11.221 0-20.011-9.216-20.011-20.011v-72.021c0-11.179 9.216-20.011 20.011-20.011h72.021c11.221 0 20.011 9.216 20.011 20.011v72.021zM660.011 374.656c0 11.221-9.216 20.011-20.011 20.011h-72.021c-11.221 0-20.011-9.216-20.011-20.011v-72.021c0-11.221 9.216-20.011 20.011-20.011h72.021c11.221 0 20.011 9.216 20.011 20.011v72.021zM843.989 374.656c0 11.221-9.216 20.011-20.011 20.011h-72.021c-11.221 0-20.011-9.216-20.011-20.011v-72.021c0-11.221 9.216-20.011 20.011-20.011h72.021c11.221 0 20.011 9.216 20.011 20.011v72.021zM280.021 242.646h-72.021c-11.179 0-20.011-9.216-20.011-20.011v-72.021c0-11.221 9.216-20.011 20.011-20.011h72.021c11.179 0 20.011 9.216 20.011 20.011v72.021c0 10.795-9.216 20.011-20.011 20.011zM459.989 242.646h-72.021c-11.179 0-20.011-9.216-20.011-20.011v-72.021c0-11.221 9.216-20.011 20.011-20.011h72.021c11.179 0 20.011 9.216 20.011 20.011v72.021c0 10.795-9.216 20.011-20.011 20.011zM640 242.646h-72.021c-11.221 0-20.011-9.216-20.011-20.011v-72.021c0-11.221 9.216-20.011 20.011-20.011h72.021c11.221 0 20.011 9.216 20.011 20.011v72.021c0 10.795-9.216 20.011-20.011 20.011zM824.021 242.646h-72.021c-11.221 0-20.011-9.216-20.011-20.011v-72.021c0-11.221 9.216-20.011 20.011-20.011h72.021c11.221 0 20.011 9.216 20.011 20.011v72.021c0 10.795-9.216 20.011-20.011 20.011zM244.011 642.646c50.389 0 58.411 38.784 59.605 52.011 0.384 2.816 0.384 4.395 0.384 4.395v171.179c0 0 0 7.211-2.389 16.384-4.779 16.811-18.389 40.021-57.6 40.021s-52.779-23.211-57.6-40.021c-2.389-9.216-2.389-16.384-2.389-16.384v-171.179c0 0 0-1.579 0.384-4.395 1.195-13.184 9.216-52.011 59.605-52.011zM781.611 642.646c49.195 0 57.216 38.784 58.411 52.011 0.384 2.816 0.384 4.395 0.384 4.395v171.179c0 0 0 7.211-2.389 16.384-4.779 16.811-18.005 40.021-56.021 40.021-41.6 0-55.211-23.211-59.605-40.021-2.005-8.021-2.005-14.805-2.005-16.384v-171.179c0-0.811 0-2.389 0-4.395 0.384-13.611 7.595-52.011 61.184-52.011z" />
<glyph unicode="&#xe64d;" glyph-name="permission_level2" d="M400.811 481.878c-10.411-16.384-24.021-31.616-39.595-43.989-30.379-23.979-66.816-36.821-104.789-36.821s-73.984 12.8-104.405 36.821c-16 12.8-29.184 27.605-39.595 44.416-49.195-1.195-88.405-46.805-88.405-96.811v-124.416c0-50.816 54.784-114.389 104.405-114.389h249.984c49.621 0 105.6 63.616 105.6 114.389v124.416c0 48.384-36.821 92.416-83.2 96.384zM173.184 464.256c23.211-18.389 51.584-29.611 83.2-29.611s60.416 11.179 83.2 29.611c6.784 5.205 12.8 11.179 18.389 17.579 20.395 23.595 33.195 54.016 33.195 87.595 0 74.411-60.416 134.784-135.211 134.784-74.411 0-135.211-60.416-135.211-134.784 0-33.579 12.8-64 33.195-87.595 6.016-6.4 12.416-11.989 19.2-17.579zM960.811 681.472c-5.589-9.216-13.611-17.621-22.784-24.789-17.195-13.611-37.589-20.395-58.411-20.395s-41.216 7.211-58.411 20.395c-8.789 7.211-17.195 15.616-23.211 24.789-27.221-0.384-50.005-25.984-50.005-54.016v-69.589c0-28.416 32.384-67.584 59.989-67.584h139.605c27.605 0 60.8 39.211 60.8 67.584v69.589c-0.384 27.221-22.016 52.011-47.616 54.016zM832.811 671.872c12.8-9.984 28.8-16.384 46.421-16.384s33.579 6.4 46.379 16.384c3.584 2.816 7.211 6.4 10.411 9.984 11.605 13.184 18.389 29.995 18.389 48.811 0 41.6-33.621 75.179-75.221 75.179s-75.221-33.621-75.221-75.179c0-18.816 7.211-35.584 18.389-48.811 3.2-4.011 6.784-7.211 10.411-9.984zM960.811 235.478c-5.589-9.216-13.611-17.579-22.784-24.789-17.195-13.611-37.589-20.395-58.411-20.395s-41.216 7.211-58.411 20.395c-8.789 7.211-17.195 15.616-23.211 24.789-27.221-0.384-50.005-25.984-50.005-54.016v-69.589c0-28.416 32.384-65.621 59.989-65.621h139.605c27.605 0 60.8 37.205 60.8 65.621v69.589c-0.384 27.221-22.016 52.011-47.616 54.016zM832.811 225.878c12.8-9.984 28.8-16.384 46.421-16.384s33.579 6.4 46.379 16.384c3.584 2.816 7.211 6.4 10.411 9.984 11.605 13.184 18.389 29.995 18.389 48.811 0 41.6-33.621 75.221-75.221 75.221s-75.221-33.579-75.221-75.221c0-18.816 7.211-35.584 18.389-48.811 3.2-4.011 6.784-7.211 10.411-9.984zM755.2-2.517c-5.589 2.816-11.989 5.205-17.621 7.211-20.011 8.021-37.589 21.589-51.2 38.4-41.216 50.389-60.8 137.984-48.384 252.416 9.6 55.595-24.405 103.211-55.211 131.2 30.421 28.416 64.811 75.989 55.211 131.2-12.416 114.389 7.211 201.6 48.384 252.416 13.611 16.811 31.189 30.421 51.2 38.4 6.016 2.389 11.989 4.395 17.621 7.211 10.795 5.589 19.2 13.184 18.389 28.416-0.811 13.995-13.995 29.184-29.184 28.8-8.405 0-20.395-5.589-27.989-8.789-29.184-11.179-54.784-30.379-74.795-54.4-53.589-64.384-77.611-165.205-62.805-299.605 0-0.811 0-1.195 0.384-2.005 9.6-53.205-41.216-86.016-55.211-89.216-15.189-3.2-24.789-17.579-23.211-32.384-1.621-15.189 8.405-29.184 23.211-32.384 13.995-3.2 64.811-35.584 55.211-89.216 0-0.811-0.384-1.195-0.384-2.005-14.805-134.784 9.6-235.605 62.805-299.605 20.011-24.021 45.611-43.179 74.795-54.4 8.021-3.2 19.584-8.405 27.989-8.789 14.805-0.384 27.989 14.805 29.184 28.8 0.811 15.189-7.595 22.784-18.389 28.416z" />
<glyph unicode="&#xe64e;" glyph-name="principal_status" d="M512 926.678c-276.011 0-500.011-224-500.011-500.011s224-500.011 500.011-500.011 500.011 224 500.011 500.011-224 500.011-500.011 500.011zM814.805 123.862c-80.811-80.811-188.416-125.184-302.805-125.184s-221.995 44.416-302.805 125.184c-80.811 80.811-125.184 188.416-125.184 302.805s44.416 221.995 125.184 302.805c80.811 80.811 188.416 125.184 302.805 125.184s221.995-44.416 302.805-125.184c80.811-80.811 125.184-188.416 125.184-302.805s-44.416-221.995-125.184-302.805zM657.621 591.062c0 80.384-65.195 145.621-145.621 145.621s-145.621-65.195-145.621-145.621c0-57.216 32.811-106.411 80.811-130.389l-53.589-316.416c0-16 11.989-29.995 27.179-29.995h183.211c14.805 0 27.221 13.995 27.221 29.995l-57.6 314.411c49.195 23.595 84.011 73.984 84.011 132.395z" />
<glyph unicode="&#xe64f;" glyph-name="principal_type" d="M948.011 650.667h-139.989v52.011c0 78.421-63.189 139.989-141.995 139.989h-305.195c-78.805 0-144.811-62.805-144.811-139.989v-52.011h-144c-26.411 0-48-21.589-48-48v-148.011h376.021v28.416c0 37.205 27.989 67.584 62.379 67.584h102.784c33.195 0 58.411-29.184 58.411-67.584v-28.416h372.011v148.011c0.384 26.411-21.205 48-47.616 48zM720 650.667h-416v52.011c0 29.995 25.216 52.011 56.789 52.011h305.195c30.379 0 54.016-21.589 54.016-52.011v-52.011zM624 358.272c0-40.405-25.6-71.595-58.411-71.595h-102.784c-33.195 0-62.421 33.621-62.421 71.595v40.405h-376.405v-320c0-26.411 21.589-48 48-48h875.989c26.411 0 48 21.589 48 48v320h-372.011v-40.405zM565.589 322.646c11.989 0 22.4 16.811 22.4 35.584v124.8c0 18.389-9.216 31.616-22.4 31.616h-102.784c-12.8 0-26.411-11.989-26.411-31.616v-124.8c0-20.011 14.421-35.584 26.411-35.584h102.784z" />
<glyph unicode="&#xe650;" glyph-name="reset" d="M1015.595 355.456c0 2.816 0.384 5.205 0 8.021-0.384 5.589-0.384 11.221-0.811 16.384-0.384 2.816-0.384 5.589-0.811 8.021 0 2.816-0.384 5.589-0.811 8.405-0.811 5.589-1.195 11.221-2.389 16.384-0.384 2.816-0.811 5.589-1.621 8.405-0.384 2.816-0.811 5.589-1.195 8.405-1.195 5.589-2.389 11.179-3.584 16.384-0.811 2.816-1.621 5.589-2.389 8.405-0.384 2.816-1.195 5.589-2.005 8.405-1.621 5.589-3.2 11.179-5.205 16.384-0.811 2.816-2.005 5.589-3.2 8.021-0.811 2.816-1.621 5.589-2.816 8.405-2.005 5.589-4.395 10.795-6.784 16.384-1.195 2.816-2.389 5.205-4.011 8.021-1.195 2.816-2.389 5.589-3.584 8.021-2.816 5.205-5.589 10.411-8.405 15.616-1.621 2.816-3.2 5.205-4.821 7.595-1.621 2.816-2.816 5.205-4.779 7.595-3.2 5.205-6.784 9.984-10.411 14.805-2.005 2.389-3.584 4.779-5.589 7.211-1.621 2.389-3.584 4.821-5.589 7.211-4.011 4.821-8.021 9.216-11.989 13.611-2.005 2.389-4.395 4.395-6.4 6.4-2.005 2.389-4.011 4.395-6.4 6.784-4.395 4.395-8.789 8.405-13.611 12.416-2.389 2.005-4.821 4.011-7.211 5.589-2.389 2.005-4.395 4.011-6.784 6.016-4.821 3.584-9.6 7.211-14.805 10.795-2.389 1.579-5.205 3.584-7.595 4.779-2.389 1.621-4.821 3.584-7.595 5.205-5.205 3.2-10.411 6.4-15.616 9.216-2.816 1.621-5.205 2.816-8.021 4.011-2.389 1.621-5.205 2.816-8.021 4.395-5.205 2.389-10.795 5.205-16.384 7.211-2.816 1.195-5.589 2.005-8.405 3.2s-5.205 2.389-8.021 3.2c-5.589 2.005-11.221 4.011-16.811 5.589-2.816 0.811-5.589 1.579-8.405 2.389s-5.589 1.621-8.405 2.389-11.179 2.816-16.811 4.011c-2.816 0.384-5.589 1.195-8.405 1.579-2.816 0.811-5.589 1.195-8.405 1.621-5.589 0.811-11.221 1.579-16.811 2.389-2.816 0.384-5.589 0.384-8.405 0.811s-5.589 0.811-8.405 1.195c-5.205 0.384-10.795 0.811-16.384 1.195-2.816 0-5.589 0-8.021 0-2.816 0.384-5.205 0.384-8.021 0.384-2.389 0-5.205 0-8.021 0h-6.4c-2.005 0-4.011 0-6.4 0-2.005 0-4.011 0-6.4 0h-12.416c-2.005 0-4.011 0-6.4 0-2.005 0-4.011 0-6.4 0h-10.411c-2.005 0-4.011 0-6.4 0-2.005 0-4.011 0-6.4 0h-12.416c-2.005 0-4.011 0-6.4 0-2.005 0-4.011 0-6.4 0h-12.416c-2.005 0-4.011 0-6.4 0-2.005 0-4.011 0-6.4 0h-12.416c-2.005 0-4.011 0-6.4 0-2.005 0-4.011 0-6.4 0h-12.416c-2.005 0-4.011 0-6.4 0-2.005 0-4.011 0-6.4 0h-12.416c-2.005 0-4.011 0-6.4 0-2.005 0-4.011 0-6.4 0h-12.416c-2.005 0-4.011 0-6.4 0-2.005 0-4.011 0-6.4 0h-12.416c-2.005 0-4.011 0-6.4 0-2.005 0-4.011 0-6.4 0h-12.416c-2.005 0-4.011 0-6.4 0-2.005 0-4.011 0-6.4 0h-12.416c-2.005 0-4.011 0-6.4 0-2.005 0-4.011 0-6.4 0h-12.416c0 0.384 0 0.384 0 0.384v151.211c0 14.805-9.984 28.416-23.595 34.005-4.779 2.005-9.984 2.816-14.805 2.816-9.6 0-19.2-3.584-26.411-10.795l-256.384-256.384c-6.784-6.784-10.795-16.384-10.795-25.984s4.011-19.2 10.795-25.984l256.384-256.384c10.411-10.411 27.221-13.611 41.216-8.021 13.611 5.589 23.595 19.2 23.595 34.005v153.6c0 0 0 0 1.195 0h12.416c2.005 0 4.011 0 6.4 0 2.005 0 4.011 0 6.4 0h12.416c2.005 0 4.011 0 6.4 0 2.005 0 4.011 0 6.4 0h12.416c2.005 0 4.011 0 6.4 0 2.005 0 4.011 0 6.4 0h12.416c2.005 0 4.011 0 6.4 0 2.005 0 4.011 0 6.4 0h12.416c2.005 0 4.011 0 6.4 0 2.005 0 4.011 0 6.4 0h12.416c2.005 0 4.011 0 6.4 0 2.005 0 4.011 0 6.4 0h12.416c2.005 0 4.011 0 6.4 0 2.005 0 4.011 0 6.4 0h12.416c2.005 0 4.011 0 6.4 0 2.005 0 4.011 0 6.4 0h12.416c2.005 0 4.011 0 6.4 0 2.005 0 4.011 0 6.4 0h12.416c2.005 0 4.011 0 6.4 0 2.005 0 4.011 0 6.4 0h12.416c2.005 0 4.011 0 6.4 0 2.005 0 4.011 0 6.4 0h12.416c2.005 0 4.011 0 6.4 0 2.005 0 4.011 0 6.4 0h6.4c1.579 0 2.816 0 4.395 0s2.816 0 4.395 0c1.621 0 2.816-0.384 4.395-0.384 2.816 0 6.016-0.384 8.789-0.811 1.621 0 2.816-0.384 4.395-0.384 1.195-0.384 2.816-0.384 4.395-0.811 2.816-0.384 5.589-0.811 8.021-1.195 1.195-0.384 2.816-0.384 4.011-0.811s2.816-0.811 4.011-0.811 5.205-1.195 7.595-2.005c1.195-0.384 2.389-0.811 3.584-0.811 1.195-0.384 2.389-0.811 3.584-1.195 2.389-0.811 4.779-1.621 7.211-2.389 1.195-0.384 2.389-0.811 3.584-1.195s2.389-0.811 3.2-1.621c2.389-0.811 4.395-2.005 6.784-2.816 1.195-0.384 2.005-0.811 3.2-1.621s2.005-1.195 3.2-1.579c2.005-1.195 4.011-2.389 6.016-3.584 0.811-0.811 2.005-1.195 2.816-1.579 0.811-0.811 2.005-1.195 2.816-2.005 2.005-1.195 3.584-2.816 5.589-4.011 0.811-0.811 1.621-1.195 2.816-2.005 0.811-0.811 1.621-1.621 2.389-2.389 1.621-1.579 3.2-3.2 4.821-4.821 0.811-0.811 1.621-1.579 2.389-2.389s1.621-1.621 2.389-2.389 3.2-3.584 4.395-5.205c0.811-0.811 1.621-1.579 2.005-2.389 0.811-0.811 1.195-2.005 2.005-2.816 1.195-2.005 2.816-4.011 4.011-5.589 0.811-0.811 1.195-2.005 2.005-2.816 0.384-1.195 1.195-2.005 1.621-3.2 1.195-2.005 2.389-4.395 3.584-6.4 0.384-1.195 1.195-2.005 1.621-3.2s0.811-2.389 1.621-3.2c1.195-2.389 2.005-4.395 2.816-6.784 0.384-1.195 0.811-2.389 1.621-3.584 0.384-1.195 0.811-2.389 1.195-3.584 0.811-2.389 1.621-4.779 2.389-7.595 0.384-1.195 0.811-2.389 1.195-3.584s0.384-2.389 0.811-4.011c0.811-2.816 1.195-5.205 1.579-8.021 0.384-1.195 0.384-2.816 0.811-4.011 0-1.195 0.384-2.816 0.384-4.011 0.384-2.816 0.811-5.589 1.195-8.405 0-1.579 0.384-2.816 0.384-4.011 0-1.579 0-2.816 0.384-4.395 0.384-2.816 0.384-5.589 0.384-8.405 0-1.621 0-2.816 0.384-4.395 0-1.195 0-2.816 0-4.011v-0.384c0-2.389 0-4.779 0-7.211 0-1.195 0-2.816 0-4.011s-0.384-2.389-0.384-3.584-0.384-5.205-0.811-7.595c0-1.195-0.384-2.389-0.384-3.584-0.384-1.195-0.384-2.389-0.811-3.584-0.384-2.389-1.195-4.779-1.621-7.595-0.384-1.195-0.384-2.389-0.811-3.584s-0.811-2.389-1.195-3.584-1.579-4.821-2.389-7.211c-0.384-1.195-0.811-2.389-1.195-3.584s-0.811-2.389-1.621-3.584c-0.811-2.389-2.005-4.821-2.816-6.784-0.384-1.195-1.195-2.389-1.579-3.584-0.811-1.195-1.195-2.389-2.005-3.2-1.195-2.389-2.389-4.395-3.584-6.784-0.811-1.195-1.195-2.005-1.621-3.2-0.811-1.195-1.579-2.005-2.005-3.2-1.195-2.005-2.816-4.395-4.395-6.4-0.811-1.195-1.621-2.005-2.005-3.2-0.811-0.811-1.621-2.005-2.389-2.816-1.621-2.005-3.2-4.011-4.821-6.016-0.811-0.811-1.621-2.005-2.389-2.816s-2.005-2.005-2.816-2.816c-1.621-2.005-3.584-3.584-5.205-5.205-0.811-0.811-2.005-2.005-2.816-2.816s-2.005-1.621-2.816-2.389-4.011-3.2-6.016-4.779c-0.811-0.811-2.005-1.621-2.816-2.389-1.195-0.811-2.005-1.579-3.2-2.005-2.005-1.579-4.011-2.816-6.4-4.395-1.195-0.811-2.005-1.195-3.2-2.005-1.195-0.384-2.005-1.195-3.2-2.005-2.005-1.195-4.395-2.389-6.784-3.584-1.195-0.384-2.005-1.195-3.2-1.579s-2.389-0.811-3.584-1.621-4.779-2.005-6.784-3.2c-1.195-0.384-2.389-0.811-3.584-1.621-1.195-0.384-2.389-0.811-3.584-1.195-2.389-0.811-4.779-1.621-7.211-2.389-1.195-0.384-2.389-0.811-3.584-1.195s-2.389-0.384-3.584-0.811-4.821-1.195-7.211-1.621c-1.195-0.384-2.389-0.384-3.584-0.811-1.195 0-2.389-0.384-3.584-0.384-2.389-0.384-4.779-0.811-7.595-0.811-1.195 0-2.389-0.384-4.011-0.384-1.195 0-2.389 0-3.584 0-2.389 0-5.205 0-7.595-0.384-2.005 0-4.011 0-6.016 0s-4.011 0-6.4 0h-12.416c-2.005 0-4.011 0-6.4 0-2.005 0-4.011 0-6.4 0h-12.416c-2.005 0-4.011 0-6.4 0-2.005 0-4.011 0-6.4 0h-12.416c-2.005 0-4.011 0-6.4 0-2.005 0-4.011 0-6.4 0h-12.416c-2.005 0-4.011 0-6.4 0-2.005 0-4.011 0-6.4 0h-13.611c-2.005 0-4.011 0-6.4 0-2.005 0-4.011 0-6.4 0h-12.416c-2.005 0-4.011 0-6.4 0-2.005 0-4.011 0-6.4 0h-12.416c-2.005 0-4.011 0-6.4 0-2.005 0-4.011 0-6.4 0h-12.416c-2.005 0-4.011 0-6.4 0-2.005 0-4.011 0-6.4 0h-12.416c-2.005 0-4.011 0-6.4 0-2.005 0-4.011 0-6.4 0h-12.416c-2.005 0-4.011 0-6.4 0-2.005 0-4.011 0-6.4 0h-12.416c-2.005 0-4.011 0-6.4 0-2.005 0-4.011 0-6.4 0h-12.416c-2.005 0-4.011 0-6.4 0-2.005 0-4.011 0-6.4 0h-12.416c-2.005 0-4.011 0-6.4 0-2.005 0-4.011 0-6.4 0h-12.416c-2.389 0-4.821 0-7.211-0.384-2.389 0-4.821 0.384-7.211 0.384h-8.021c-57.6 0-104.021-46.379-104.021-104.021s46.421-104.021 104.021-104.021h8.021c2.389 0 4.779 0 7.211 0.384 2.389 0 4.779-0.384 7.211-0.384h12.416c2.005 0 4.011 0 6.4 0 2.005 0 4.011 0 6.4 0h13.611c2.005 0 4.011 0 6.4 0 2.005 0 4.011 0 6.4 0h12.416c2.005 0 4.011 0 6.4 0 2.005 0 4.011 0 6.4 0h12.416c2.005 0 4.011 0 6.4 0 2.005 0 4.011 0 6.4 0h12.416c2.005 0 4.011 0 6.4 0 2.005 0 4.011 0 6.4 0h12.416c2.005 0 4.011 0 6.4 0 2.005 0 4.011 0 6.4 0h12.416c2.005 0 4.011 0 6.4 0 2.005 0 4.011 0 6.4 0h12.416c2.005 0 4.011 0 6.4 0 2.005 0 4.011 0 6.4 0h12.416c2.005 0 4.011 0 6.4 0 2.005 0 4.011 0 6.4 0h12.416c2.005 0 4.011 0 6.4 0 2.005 0 4.011 0 6.4 0h12.416c2.005 0 4.011 0 6.4 0 2.005 0 4.011 0 6.4 0h12.416c2.005 0 4.011 0 6.4 0 2.005 0 4.011 0 6.4 0h12.416c2.005 0 4.011 0 6.4 0 2.005 0 4.011 0 6.4 0h12.416c2.005 0 4.011 0 6.4 0 2.005 0 4.011 0 6.4 0 0 0 0.384 0 0.384 0 5.589 0 11.605 0 17.195 0.384 2.816 0 6.016 0.384 8.789 0.811 2.816 0 5.589 0.384 8.789 0.384 5.589 0.384 11.605 1.195 17.621 2.005 2.816 0.384 5.589 0.811 8.405 1.621 2.816 0.384 5.589 0.811 8.789 1.195 5.589 1.195 11.605 2.389 17.195 3.584 2.816 0.811 5.589 1.621 8.405 2.389 2.816 0.384 5.589 1.195 8.405 2.005 5.589 1.579 11.221 3.584 16.811 5.589 2.816 0.811 5.589 2.005 8.021 3.2 2.816 0.811 5.589 2.005 8.405 2.816 5.205 2.005 10.795 4.395 16 6.784 2.816 1.195 5.205 2.389 7.595 4.011 2.816 1.195 5.205 2.389 8.021 3.584 5.205 2.816 10.411 5.589 15.189 8.405 2.389 1.621 5.205 3.2 7.211 4.779 2.389 1.195 5.205 2.816 7.595 4.395 4.779 3.2 9.6 6.4 14.379 9.984 2.389 1.621 4.779 3.584 6.784 5.205 2.389 1.621 4.821 3.2 7.211 5.205 4.395 3.584 8.789 7.211 13.184 11.179 2.389 2.005 4.395 4.011 6.4 6.016 2.389 2.005 4.395 3.584 6.4 5.589 4.011 4.011 8.405 8.021 12.416 12.416 2.005 2.005 4.011 4.395 5.589 6.4 2.005 2.005 4.011 4.011 6.016 6.4 3.584 4.395 7.595 8.789 11.179 13.611 2.005 2.389 3.584 4.821 5.205 7.211 2.005 2.389 3.584 4.395 5.205 6.784 3.2 4.821 6.784 9.6 9.6 14.421 1.621 2.389 3.2 4.779 4.395 7.595 1.621 2.389 3.2 4.821 4.821 7.595 2.816 5.205 5.589 10.411 8.405 15.189 1.195 2.816 2.389 5.205 3.584 8.021 1.579 2.389 2.816 5.205 4.011 8.021 2.389 5.205 4.779 10.795 6.784 16 1.195 2.816 2.005 5.589 2.816 8.405 1.195 2.816 2.389 5.205 3.2 8.021 2.005 5.589 3.584 11.179 5.205 16.811 0.811 2.816 1.579 5.589 2.005 8.405 0.811 2.816 1.579 5.589 2.389 8.405 1.195 5.589 2.389 11.605 3.584 17.195 0.384 2.816 0.811 5.589 1.195 8.789 0.811 2.816 1.195 5.589 1.621 8.789 0.811 5.589 1.621 11.605 2.005 17.195 0.384 2.816 0.384 6.016 0.384 8.789 0.384 2.816 0.384 5.589 0.811 8.789 0.384 5.589 0.384 11.179 0.384 16.811v0.384c-1.195 2.389-1.195 5.205-1.621 8.021z" />
<glyph unicode="&#xe651;" glyph-name="site2" d="M512 917.462c-270.805 0-490.795-219.605-490.795-490.795s219.605-490.795 490.411-490.795c271.189 0 490.795 219.605 490.795 490.795 0.384 271.189-219.179 490.795-490.411 490.795zM357.205 818.646c-31.189-34.816-58.411-75.605-80-120.405-19.584 10.411-37.589 21.589-54.784 34.389 38.784 36.395 84.395 66.005 134.784 86.016zM176 681.472c22.784-17.621 48-32.811 74.795-46.421-18.389-53.589-29.995-112.384-33.195-172.416h-125.611c6.784 80 36.779 156.8 84.011 218.795zM91.989 390.656h125.184c3.2-59.989 14.421-118.016 32.384-171.221-26.795-13.611-51.584-29.611-74.411-47.189-46.379 61.995-76.416 138.411-83.2 218.411zM221.611 121.472c16.811 12.416 34.816 24.021 54.4 34.005 21.205-44.8 48-85.205 79.189-120.405-50.005 20.821-95.189 50.005-133.589 86.4zM475.989 19.456c-56.021 37.205-104.021 93.995-137.984 164.011 42.411 14.805 89.984 24.405 137.984 27.605v-191.616zM475.989 280.278c-56.021-3.2-112.384-15.189-163.2-33.195-14.805 44.8-23.595 95.616-26.411 143.616h189.611v-110.379zM475.989 462.678h-189.184c3.2 52.011 11.989 99.584 27.179 144.811 50.005-18.005 105.984-29.995 162.005-33.195v-111.616zM475.989 643.456c-48 3.2-94.379 12.416-136.789 27.179 34.005 69.205 84.821 125.184 136.789 162.005v-189.184zM932.011 462.678h-125.611c-3.2 59.989-14.805 118.4-33.195 171.989 26.795 13.611 51.584 29.611 74.411 47.189 47.616-61.995 77.611-139.179 84.395-219.179zM801.621 732.246c-16.811-12.416-35.2-24.021-54.784-34.389-21.589 44.8-48.811 85.589-80 120.405 50.389-19.584 96-49.195 134.784-86.016zM548.011 832.683c52.011-36.821 102.784-92.8 136.789-161.621-42.411-14.805-88.789-24.021-136.789-27.221v188.8zM548.011 574.251c56.021 3.2 112 15.189 162.389 32.811 14.805-45.184 24.021-92.8 26.795-144.811h-189.184v112zM548.011 390.656h189.184c-2.816-48-11.605-98.816-26.411-143.616-50.816 18.005-107.179 29.995-163.2 33.195v110.379zM548.011 19.456v191.189c48-3.2 95.189-12.8 137.984-27.605-34.005-69.589-82.005-126.805-137.984-163.584zM668.8 35.883c30.805 34.816 57.6 75.605 79.189 120.021 19.584-10.411 37.589-21.589 54.4-34.005-38.4-36.821-83.584-66.005-133.589-86.016zM848.384 172.672c-22.784 17.621-48 32.811-74.411 46.379 18.005 53.589 29.184 111.616 32.384 171.605h125.611c-6.784-80-36.779-155.989-83.584-217.984z" />
<glyph unicode="&#xe652;" glyph-name="permission_level" d="M374.016 478.251c-9.6-15.616-22.4-29.611-37.205-41.6-28.8-22.784-62.805-34.816-98.389-34.816s-69.589 11.989-98.389 34.816c-15.189 11.989-27.605 25.984-37.205 41.6-45.995-0.384-82.816-43.179-82.816-90.411v-116.779c0-47.616 51.584-108.416 98.005-108.416h234.795c46.379 0 99.2 60.8 99.2 108.416v116.779c0 45.184-34.816 86.784-77.995 90.411zM160 461.867c21.589-17.195 48.384-27.605 78.421-27.605s56.789 10.795 78.421 27.605c6.4 4.821 11.989 10.411 17.195 16.811 19.2 22.016 31.189 50.816 31.189 82.389 0 70.016-56.789 126.805-126.805 126.805s-126.805-56.789-126.805-126.805c0-31.616 11.989-60.416 31.189-82.389 5.205-6.016 10.795-11.605 17.195-16.811zM957.995 677.462c-5.589-8.789-13.184-17.195-22.016-24.021-16.384-13.184-36.395-20.011-56.789-20.011s-40.021 6.784-56.405 20.011c-8.789 6.784-16.811 14.805-22.4 24.021-26.411-0.384-48.384-25.216-48.384-52.011v-67.2c0-27.605 31.189-67.584 57.984-67.584h135.211c26.795 0 58.795 40.021 58.795 67.584v67.2c0 25.984-20.779 50.005-45.995 52.011zM834.389 667.862c12.416-9.984 27.989-16 44.8-16 17.195 0 32.384 6.016 44.8 16 3.584 2.816 6.784 6.016 9.984 9.6 11.221 12.8 18.005 29.184 18.005 47.189 0 40.021-32.811 72.789-72.789 72.789s-72.789-32.811-72.789-72.789c0-18.005 6.784-34.816 18.005-47.189 2.816-3.584 6.4-6.784 9.984-9.6zM957.995 245.462c-5.589-8.789-13.184-17.195-22.016-24.021-16.384-13.184-36.395-20.011-56.789-20.011s-40.021 6.784-56.405 20.011c-8.789 6.784-16.811 14.805-22.4 24.021-26.411-0.384-48.384-25.216-48.384-52.011v-67.2c0-27.605 31.189-63.616 57.984-63.616h135.211c26.795 0 58.795 36.011 58.795 63.616v67.2c0 25.984-20.779 50.005-45.995 52.011zM834.389 236.288c12.416-9.984 27.989-16 44.8-16 17.195 0 32.384 6.016 44.8 16 3.584 2.816 6.784 6.016 9.984 9.6 11.221 12.8 18.005 29.184 18.005 47.189 0 40.021-32.811 72.789-72.789 72.789s-72.789-32.811-72.789-72.789c0-18.005 6.784-34.816 18.005-47.189 2.816-3.584 6.4-6.784 9.984-9.6zM744.405 28.672c-5.205 2.816-10.795 4.779-16.384 6.784-18.816 7.211-34.816 20.011-47.616 35.584-38.016 46.805-56.405 127.616-44.8 233.984 8.789 51.2-22.784 95.616-51.2 121.6 28.416 26.411 59.989 70.4 51.2 121.6-11.605 105.984 6.784 187.179 44.8 233.984 12.416 15.616 28.8 28.416 47.616 35.584 5.589 2.005 11.221 4.011 16.384 6.784 9.984 5.205 18.005 11.989 16.811 26.411-0.811 13.184-13.184 27.179-26.795 26.795-8.021 0-18.816-5.205-25.984-8.021-27.179-10.411-50.816-28.416-69.589-50.389-49.579-59.605-72.021-153.216-58.411-278.016 0-0.811 0-1.195 0.384-2.005 8.789-49.621-38.016-79.616-51.2-82.816-13.995-3.2-23.211-16.384-21.589-29.995-1.579-13.995 7.595-27.221 21.589-29.995 12.8-2.816 59.989-33.195 51.2-82.816 0-0.811-0.384-1.195-0.384-2.005-13.611-124.8 8.789-218.411 58.411-278.016 18.389-22.4 42.411-40.021 69.589-50.389 7.211-2.816 18.389-8.021 25.984-8.021 13.611-0.384 25.984 13.611 26.795 26.795 1.195 14.379-6.784 21.589-16.811 26.411z" />
<glyph unicode="&#xe653;" glyph-name="Quote2" d="M1005.611 642.262c-6.4 3.2-13.995 2.816-19.584-1.621l-335.189-241.621 235.989-147.584c13.995-8.789 18.389-27.179 9.6-41.216-5.589-9.216-15.616-13.995-25.6-13.995-5.589 0-10.795 1.621-16 4.395l-256.811 160.811-88.021-63.616-86.016 61.995-254.421-159.189c-4.779-3.2-10.411-4.395-16-4.395-9.984 0-19.584 4.779-25.6 13.995-8.789 13.995-4.395 32.384 9.6 41.216l233.6 146.005-337.195 243.2c-5.589 4.011-13.611 4.779-19.584 1.579-6.4-3.2-10.411-9.6-10.411-16.811v-506.411c0-10.411 8.789-20.821 19.2-20.821h973.184c10.411 0 19.584 10.411 19.584 20.821v506.411c0 7.211-4.395 13.611-10.411 16.811zM14.805 719.062l486.4-352.811c3.2-2.389 7.211-3.584 10.795-3.584 4.011 0 7.595 1.195 10.795 3.584l486.4 352.811c6.4 4.821 9.216 11.989 6.784 20.011-2.389 7.595-9.6 11.989-17.579 11.989h-972.8c-8.021 0-15.189-4.395-17.621-11.989-2.389-8.021 0.384-15.189 6.784-20.011z" />
<glyph unicode="&#xe654;" glyph-name="Snapshot" d="M497.195 587.051c0 0-82.389-60.416-162.389-118.784-31.189-22.784-61.995-45.184-87.211-63.616-5.589-4.011-10.795-8.021-16-11.605l624-54.016 5.589 64-32 73.984-73.6 169.216-16.811-14.805-185.216-165.589-56.405 121.216zM337.621 606.251c40.405-3.584 75.605 26.411 79.189 66.816 0.384 4.395 0.384 9.216 0 13.611-3.2 34.389-30.805 62.805-66.389 65.579-40.405 3.584-75.989-26.411-79.189-66.816-0.384-4.821-0.384-9.6 0-13.995 3.584-34.389 30.805-62.421 66.389-65.195zM994.005 829.483l-847.189 73.216c-8.789 0.811-16.811-5.589-17.195-14.805l-20.011-233.216-69.589-7.211c-8.789-0.811-14.805-8.405-13.995-16.811l59.605-577.621c0.811-8.405 8.405-14.379 16.811-13.611l809.216 83.584c8.405 0.811 14.379 8.405 13.611 16.811l-5.589 54.784 19.2-1.579c8.789-0.811 16.811 5.589 17.195 14.805l52.395 604.8c1.195 8.021-5.589 16-14.379 16.811zM96.811 511.062l-5.589 54.016 10.411 1.195-4.779-55.211zM111.616 325.462l2.005 24.789 2.389-25.216-4.395 0.384zM136.405 130.646l-13.611 132.779 150.4-13.184c-23.211-24.789-44.8-48-61.995-66.005l376.405 38.784 242.389-20.821-693.589-71.595zM904.021 347.051l-5.205-59.179-754.816 65.195 18.816 219.221 7.595 88.405 12.8 146.816 754.816-65.621-34.005-394.795z" />
<glyph unicode="&#xe655;" glyph-name="Users_quote" d="M475.989 512.683l4.821 0.384c-1.621 47.616-49.195 87.595-99.584 87.595-29.995-49.621-74.795-74.411-149.205-74.411-51.2 0-94.421 37.589-124.8 74.411-47.616-6.016-75.221-45.184-75.221-89.984v-119.595c0-48.811 46.421-84.395 98.005-84.395h205.995v49.621c0 80.384 60.416 146.389 139.989 156.416zM162.816 599.083c22.016-17.621 50.005-28.416 80.384-28.416s57.984 10.795 80.384 28.416c29.995 24.021 50.005 60.416 50.005 101.589-0.384 71.595-58.795 130.005-130.816 130.005s-130.005-58.411-130.005-130.005c0-41.216 20.011-77.611 50.005-101.589zM888.405 481.451c-6.784 1.195-13.995 1.579-21.205 1.579-42.411-70.016-100.395-104.789-204.8-104.789-71.595 0-138.411 52.011-180.821 104.021-0.384 0.384-0.384 0.384-0.384 0.811-66.816-8.405-112.811-64-112.811-126.805v-191.616c0-68.779 85.205-141.611 157.184-141.611h340.821c72.021 0 130.005 73.216 130.005 141.611v191.616c-0.384 61.995-46.421 114.816-107.989 125.184zM571.605 457.856c31.189-24.789 70.016-39.979 112.811-39.979s81.621 15.189 112.811 40.021c42.411 33.579 70.016 84.821 70.016 142.805 0 100.779-82.005 182.784-182.784 182.784s-182.784-82.005-182.784-182.784c0-57.984 27.605-109.184 70.016-142.805z" />
</font>
</defs>
</svg>
